<svg version="1.1" xmlns="http://www.w3.org/2000/svg" xmlns:xlink="http://www.w3.org/1999/xlink" width="2880" height="1620" viewBox="0,0,2880,1620"><defs><clipPath id="clip-1"><rect x="-960" y="-540" transform="scale(0.5,0.5)" width="5760" height="3240" fill="none" stroke-width="0.5"/></clipPath><clipPath id="clip-2"><rect x="-960" y="-540" transform="scale(0.5,0.5)" width="5760" height="3240" fill="none" stroke-width="0.5"/></clipPath><clipPath id="clip-3"><rect x="-960" y="-540" transform="scale(0.5,0.5)" width="5760" height="3240" fill="none" stroke-width="0.5"/></clipPath><clipPath id="clip-4"><rect x="-960" y="-540" transform="scale(0.5,0.5)" width="5760" height="3240" fill="none" stroke-width="0.5"/></clipPath><clipPath id="clip-5"><rect x="-960" y="-540" transform="scale(0.5,0.5)" width="5760" height="3240" fill="none" stroke-width="0.5"/></clipPath><clipPath id="clip-6"><rect x="-960" y="-540" transform="scale(0.5,0.5)" width="5760" height="3240" fill="none" stroke-width="0.5"/></clipPath></defs><g transform="translate(480,270)"><g clip-path="url(#clip-6)" data-paper-data="{&quot;isPaintingLayer&quot;:true}" fill-rule="nonzero" stroke="none" stroke-linecap="butt" stroke-linejoin="miter" stroke-miterlimit="10" stroke-dasharray="" stroke-dashoffset="0" style="mix-blend-mode: normal">\n \n

<path d="M88,28h464.46777v147.02656l0.06836,2.06263l0.11393,1.02656l0.31901,2.05312l0.25065,2.05313l0.04557,1.03607l0.02279,1.02656v8.22201h-104.77214v3.14622l0.02278,1.99609l0.04557,1.02656l0.25065,2.05312l0.18229,1.03607l0.28483,2.05313l0.09115,1.02656l0.27344,2.05312l0.18229,1.03607l0.27344,2.05313l0.09115,1.02656l0.29622,2.05313l0.22787,1.03607l0.51269,2.05312l0.22786,1.02656l0.29622,2.05312l0.09115,1.03607l0.3418,2.05313l0.29622,1.02656l0.64941,2.05313l0.63802,2.06263l0.3418,1.02656l0.29622,1.02656l0.31901,1.02656l0.22786,1.02656l0.5127,2.06263l0.68359,2.05313l0.91146,2.05312l0.99121,2.06263l0.43294,1.02656l0.78613,2.05313l0.77474,2.06263l0.82031,1.96758l0.83171,1.73945l0.41016,0.79844l0.43294,0.86497l1.03678,1.85352l1.25325,2.02461l0.64942,1.02656l1.16211,2.06263l0.58106,1.02656l0.59245,1.02656l0.63802,1.02656l1.33301,2.06263l1.29883,1.96758l1.40137,1.73945l0.78613,0.79844l1.59506,1.74896l1.49251,1.93906l1.33301,1.85352l0.68359,0.85547l1.49251,1.57787l0.79753,0.74141l1.65202,1.56836l0.82031,0.82695l1.65202,1.62539l0.80892,0.77943l0.77474,0.65586l1.40137,1.22617l0.63802,0.59883l1.40137,1.02656l0.77474,0.45625l1.62923,1.05508l0.82031,0.62734l1.65202,1.32122l0.83171,0.62734l1.64063,1.05508l0.83171,0.42773l1.65202,0.9125l1.64062,0.99805l0.83171,0.57031l0.82031,0.45625l0.8317,0.5513l1.65202,0.82695l0.82031,0.28516l1.65202,0.57031l0.82031,0.31367l1.65202,0.62734l0.82031,0.31367l0.83171,0.25664l1.65202,0.5418l0.82031,0.31367l1.65202,0.62734l0.82031,0.28516l1.65202,0.3707l1.65202,0.28516l1.65202,0.40872l1.65202,0.31367l0.82031,0.05703l1.65202,0.11406l1.65202,0.31367l0.82031,0.22813l1.65202,0.31367l0.82031,0.05703l0.8317,0.02851h20.62175l0.82031,1.02656v11.3112l-0.82031,1.02656l-1.65202,0.25664l-0.45573,0.02852l-1.19629,0.74141h3.30404v132.63568h372.889v-5.14232h9.90072v-110.01328h7.42839l0.82031,0.02852l0.83171,0.05703l1.65202,0.31367l0.82031,0.22813l0.82031,0.19961l1.65202,0.39922l0.83171,0.19961l0.82031,0.22813l1.65202,0.31367l1.65202,0.17109l1.64063,0.31367l0.83171,0.25664l1.65202,0.52279l0.82031,0.25664l1.65202,0.62734l0.82031,0.34219l1.65202,0.68438l0.83171,0.34219l1.64062,0.68437l0.83171,0.34219l0.82031,0.34219l0.83171,0.3707l0.82031,0.3707l1.65202,0.88399l0.82031,0.52278l1.65202,0.88398l1.65202,0.79844l1.65202,0.9125l0.82031,0.57031l0.83171,0.57031l1.64063,1.25469l1.65202,1.17865l0.83171,0.51328l1.64062,1.22617l0.83171,0.74141l1.65202,1.48281l0.82031,0.71289l1.65202,1.42578l0.82031,0.75091l0.83171,0.82695l1.65202,1.85351l1.64063,1.93906l1.65202,1.74896l0.83171,0.79844l1.64063,1.73945l1.62923,1.96758l0.78613,1.03607l1.38997,2.05312l0.64942,1.02656l0.66081,1.02656l1.33301,2.06263l0.66081,1.02656l0.63802,1.02656l1.37858,2.05312l0.72917,1.02656l1.31022,2.06263l0.52409,1.02656l1.014,2.05313l1.0026,2.06263l0.94564,2.05313l0.41016,1.02656l0.93424,2.05313l0.99121,2.06263l0.8431,2.05312l0.37598,1.02656l0.75195,2.06263l0.36458,1.02656l0.59245,2.05312l0.25065,1.02656l0.6722,2.06263l0.41016,1.02656l0.3418,1.02656l0.36458,1.02656l0.58106,2.06263l0.41015,2.05312l0.31901,2.05313l0.18229,1.02656l0.22786,1.03607l0.5127,2.05313l0.21647,1.02656l0.19369,1.02656l0.30762,2.06263l0.1709,1.02656l0.38737,2.05312l0.22786,1.02656l0.18229,1.02656l0.20508,1.03607l0.26205,2.05313l0.03418,1.02656l0.03418,2.05312v9.25807h9.06901v6.16888h454.56706v452.39089h-558.51888v3.08919h-9.90072l-0.82031,-1.02656v-29.81784l-0.02278,-1.02656l-0.04557,-1.03607l-0.25065,-2.05312l-0.18229,-1.02656l-0.1709,-1.02656l-0.30762,-2.06263l-0.1709,-1.02656l-0.31901,-2.05312l-0.11393,-1.02656l-0.13672,-2.06263l-0.27344,-2.05313l-0.22787,-1.02656l-0.52409,-2.05312l-0.28483,-1.03607l-1.09375,-4.10625l-0.5013,-2.06263l-0.22786,-1.02656l-0.56966,-2.05312l-0.37598,-1.02656l-0.75195,-2.06263l-0.71777,-2.05312l-0.31901,-1.02656l-0.36458,-1.02656l-0.75195,-2.06263l-0.44434,-1.02656l-1.02539,-2.05312l-0.52409,-1.02656l-0.53548,-1.03607l-0.93425,-2.05312l-0.41016,-1.02656l-0.5013,-1.02656l-0.48991,-1.02656l-0.59245,-1.03607l-0.56966,-1.02656l-1.26465,-2.05313l-0.66081,-1.02656l-0.6722,-1.02656l-1.29883,-2.06263l-0.60384,-1.02656l-1.13932,-2.05313l-0.59245,-0.99805l-0.6722,-0.97904l-1.41276,-1.73945l-0.69499,-0.79844l-1.32161,-1.73945l-1.40137,-1.89154l-1.58366,-1.73945l-1.65202,-1.62539l-1.65202,-1.65391l-0.82031,-0.82695l-1.65202,-1.57786l-0.82031,-0.74141l-1.65202,-1.53984l-0.82031,-0.79844l-0.83171,-0.71289l-0.82031,-0.75091l-0.83171,-0.62734l-1.65202,-1.25469l-1.64063,-1.25469l-0.83171,-0.57031l-0.82031,-0.59883l-0.8317,-0.48477l-1.64063,-1.05508l-0.83171,-0.60833l-0.82031,-0.5418l-0.8317,-0.59883l-1.64063,-0.99805l-0.8317,-0.39922l-1.65202,-0.74141l-0.82031,-0.3707l-1.65202,-0.82695l-0.82031,-0.42774l-1.65202,-0.74141l-0.8317,-0.35169l-1.64063,-0.65586l-1.65202,-0.51328l-0.83171,-0.19961l-1.64062,-0.48477l-1.65202,-0.71289l-0.83171,-0.3707l-1.64063,-0.42773l-0.83171,-0.11406l-1.65202,-0.34219l-0.82031,-0.25664l-0.82031,-0.22813l-0.83171,-0.28516l-0.82031,-0.22812l-0.8317,-0.25664l-1.65202,-0.31367l-0.82031,-0.05703l-0.82031,-0.02851h-6.60808v130.57305h-6.59668l-1.65202,-0.08555l-1.56087,-0.42774l-1.13932,-0.96953l-0.31901,-0.76992l-0.27344,-1.86302h-733.41634v-871.88425M540.09473,43.42695h-439.72168v404.06641h439.72168v-127.49336l0.02279,-1.02656l0.06836,-0.99805l0.15951,-0.97904l0.59245,-1.65391l0.25065,-0.39922l0.55827,-1.11211h-7.42838v-11.3112h-3.30404l-1.65202,-0.02851l-0.82031,-0.05703l-1.65202,-0.31367l-0.82031,-0.22812l-0.83171,-0.19961l-1.64062,-0.39922l-0.8317,-0.19961l-0.82031,-0.22812l-1.65202,-0.34219l-0.82031,-0.11406l-1.65202,-0.3707l-0.83171,-0.28516l-1.65202,-0.62734l-0.82031,-0.28516l-0.82031,-0.23763l-1.65202,-0.39922l-1.65202,-0.51328l-1.65202,-0.65586l-0.82031,-0.34219l-1.65202,-0.74141l-0.82031,-0.42774l-1.65202,-0.76992l-0.8317,-0.28516l-1.65202,-0.62734l-1.64062,-0.82695l-0.8317,-0.5513l-1.65202,-1.08359l-1.64063,-1.14062l-0.83171,-0.5418l-1.65202,-1.14062l-1.64062,-1.31172l-0.83171,-0.72239l-1.65202,-1.22617l-0.82031,-0.51328l-1.65202,-1.22617l-1.65202,-1.4543l-0.82031,-0.79844l-0.83171,-0.77943l-1.64063,-1.73945l-1.65202,-1.88203l-0.83171,-0.88398l-1.64063,-1.66341l-0.83171,-0.85547l-0.82031,-0.88398l-1.65202,-1.96758l-0.82031,-1.02656l-1.58366,-2.06263l-1.40137,-2.05313l-0.63802,-1.02656l-1.33301,-2.02461l-0.66081,-0.97903l-1.31022,-1.73945l-0.66081,-0.79844l-1.31022,-1.73945l-0.61524,-0.97904l-0.52409,-0.99805l-1.014,-2.05313l-1.0026,-2.05312l-0.94564,-2.06263l-0.41016,-1.02656l-0.99121,-2.05312l-1.13932,-2.06263l-0.60384,-1.02656l-0.95703,-2.05313l-0.68359,-2.05312l-0.25065,-1.03607l-0.60384,-2.05312l-1.09375,-3.07969l-0.62663,-2.06263l-0.52409,-2.05313l-0.25065,-1.02656l-0.20508,-1.02656l-0.47852,-2.06263l-0.31901,-1.02656l-0.58105,-2.05313l-0.20508,-1.02656l-0.36458,-2.06263l-0.20508,-1.02656l-0.29622,-1.02656l-0.58106,-2.05312l-0.31901,-2.06263l-0.04557,-1.02656l-0.02278,-1.02656l-0.02279,-2.05313l-0.04557,-1.03607l-0.25065,-2.05312l-0.18229,-1.02656l-0.25065,-2.05313l-0.04557,-1.03607l-0.02278,-2.05312l-0.02279,-1.02656l-0.04557,-1.02656l-0.25065,-2.0056l-0.29623,-1.59687l-0.21647,-1.53984l1.24186,-0.08555l0.45573,-0.14258l0.8317,-0.17109l0.77474,-0.22812l1.65202,-0.31367l0.82031,-0.05703l1.65202,-0.02852h80.02604v-10.28464h5.77636v-136.74193M551.63607,181.19544h-15.66569v8.23151l0.82031,1.02656h15.67708v-8.23151l-0.83171,-1.02656M551.63607,302.51992h-15.66569v9.25807h1.69759l1.59505,-0.02852l0.8317,-0.05703l1.65202,-0.31367l0.82031,-0.22812l1.65202,-0.32318l0.82031,-0.04753l1.65202,0.04753l1.65202,0.32318l1.60644,0.39922l0.45573,0.14258l1.23047,0.08555v-9.25807M1022.71191,463.94688v-31.88047l-0.02279,-1.02656l-0.04557,-1.02656l-0.26204,-2.05313l-0.20508,-1.02656l-0.18229,-1.03607l-0.22786,-1.02656l-0.18229,-1.02656l-0.20508,-1.02656l-0.25065,-2.05313l-0.13672,-2.06263l-0.28483,-2.05312l-0.21647,-1.02656l-0.52409,-2.06263l-0.28483,-1.02656l-1.09375,-4.10625l-0.5127,-2.06263l-0.22786,-1.02656l-0.56966,-2.05313l-0.36458,-1.02656l-0.75195,-2.06263l-0.71777,-2.05312l-0.31901,-1.02656l-0.36458,-1.02656l-0.35319,-1.03607l-0.82031,-2.05313l-0.47851,-1.02656l-0.45573,-1.02656l-0.5127,-1.03607l-0.93424,-2.05313l-0.43294,-1.02656l-0.94564,-2.05313l-1.16211,-2.06263l-0.62663,-1.02656l-0.61523,-1.02656l-1.07096,-2.05312l-0.5013,-1.03607l-1.1735,-1.96758l-0.62663,-0.88398l-1.13932,-1.65391l-1.1735,-1.74896l-0.63802,-0.96953l-0.66081,-0.96953l-0.6722,-0.96953l-1.29883,-1.73945l-1.40137,-1.66341l-0.78613,-0.88399l-0.79752,-0.96953l-1.65202,-1.99609l-0.82031,-0.96953l-1.65202,-1.72044l-0.82031,-0.74141l-1.65202,-1.42578l-0.8317,-0.74141l-1.64063,-1.62539l-0.8317,-0.80794l-0.82031,-0.76992l-0.83171,-0.65586l-1.64062,-1.25469l-1.65202,-1.25469l-0.83171,-0.57031l-0.82031,-0.59883l-1.65202,-1.06458l-0.82031,-0.45625l-0.83171,-0.57031l-0.82031,-0.45625l-0.83171,-0.57031l-0.82031,-0.45625l-0.82031,-0.5418l-1.65202,-0.88398l-0.8317,-0.3707l-0.82031,-0.3707l-0.82031,-0.34219l-1.65202,-0.75091l-0.83171,-0.42773l-0.82031,-0.39922l-0.82031,-0.42774l-1.65202,-0.71289l-0.83171,-0.28516l-0.82031,-0.22812l-1.65202,-0.39922l-0.82031,-0.19961l-1.65202,-0.48476l-0.83171,-0.28516l-1.64063,-0.51328l-1.65202,-0.51328l-0.83171,-0.22813l-0.82031,-0.28516l-0.82031,-0.22813l-0.83171,-0.29466l-0.82031,-0.22813l-0.83171,-0.25664l-1.64062,-0.31367l-0.83171,-0.05703l-0.82031,-0.02852h-7.42838v131.60912h-11.55274v-3.08919h-372.889v166.56927l0.06836,2.05312l0.11393,1.02656l0.31901,2.06263l0.25065,2.05313l0.04557,1.02656l0.02279,1.02656v7.20495h-104.77214v3.13672l0.02278,1.99609l0.04557,1.03607l0.25065,2.05312l0.18229,1.02656l0.26204,2.05313l0.13672,2.06263l0.25065,2.05312l0.18229,1.02656l0.27344,2.06263l0.09115,1.02656l0.29622,2.05312l0.22787,1.02656l0.51269,2.06263l0.22786,1.02656l0.29622,2.05313l0.09115,1.02656l0.3418,2.06263l0.29622,1.02656l0.64941,2.05313l0.59245,2.05312l0.27344,1.03607l0.82031,3.07969l0.60384,2.06263l0.72917,2.05313l0.91146,2.05313l0.99121,2.06263l0.43294,1.02656l0.78613,2.05313l0.82031,2.05313l0.47852,1.03607l0.92285,2.05313l0.41016,1.02656l0.97982,2.05313l0.60384,1.03607l0.56966,1.02656l0.63802,1.02656l1.24186,2.05313l0.59244,1.02656l1.26465,2.06263l1.37858,2.05312l0.72917,0.99805l0.6836,0.96953l0.6722,0.89349l1.16211,1.56836l1.1735,1.42578l0.63802,0.74141l0.66081,0.79844l1.33301,1.66341l0.63802,0.82695l1.40137,1.56836l0.77474,0.74141l1.62923,1.56836l0.8317,0.82695l1.64063,1.66341l0.83171,0.79844l0.82031,0.74141l1.65202,1.39727l0.8317,0.68437l1.64063,1.32122l0.83171,0.59883l1.65202,1.22617l0.82031,0.65586l1.65202,1.31172l0.82031,0.62734l1.65202,1.05508l0.82031,0.43724l0.83171,0.45625l1.65202,0.85547l0.82031,0.42773l1.65202,1.02656l0.82031,0.57031l1.65202,0.94102l0.8317,0.31367l1.64063,0.57031l0.83171,0.31367l1.65202,0.63685l0.82031,0.31367l1.65202,0.5418l0.82031,0.25664l0.83171,0.31367l0.82031,0.31367l1.65202,0.59883l0.82031,0.19961l0.83171,0.14258l0.82031,0.05703l1.65202,0.11406l0.82031,0.14258l1.65202,0.39922l0.8317,0.17109l1.64062,0.28516l1.65202,0.34219l0.83171,0.22812l1.64063,0.31367l0.83171,0.05703l0.82031,0.02852h21.45345l0.82031,1.02656v11.3112l-1.20768,0.45625l-1.05957,0.60833l-0.38737,0.17109l-0.63802,0.82695l1.13932,0.3707l0.78613,0.99805l0.45573,1.73945l0.06836,0.99805l0.02279,1.03607v111.03984h268.94857v-4.11575h9.90072v-108.98672h5.76498l0.8317,0.02851l0.82031,0.05703l1.65202,0.31367l0.82031,0.22812l1.65202,0.34219l0.8317,0.11406l1.65202,0.34219l0.82031,0.22813l1.65202,0.32318l1.65202,0.17109l1.64063,0.31367l0.83171,0.25664l1.65202,0.51328l0.82031,0.25664l1.65202,0.62734l0.82031,0.34219l2.47233,1.02656l2.48372,1.02656l0.82031,0.34219l0.8317,0.3707l0.82031,0.3707l1.65202,0.89349l0.82031,0.51328l1.65202,0.88399l1.65202,0.79844l1.65202,0.9125l1.64063,1.14062l1.65202,1.25469l1.65202,1.17864l0.82031,0.51328l1.65202,1.22617l0.83171,0.74141l1.65202,1.42578l0.82031,0.62734l1.65202,1.34974l0.82031,0.79844l0.8317,0.85547l0.82031,0.96953l1.65202,1.93906l0.82031,0.89349l1.65202,1.65391l0.82031,0.85547l0.83171,0.88398l1.65202,1.96758l0.82031,1.03607l0.79753,1.02656l0.78613,1.02656l0.70638,0.99805l1.31022,1.85352l0.63802,0.86497l1.24186,1.65391l1.23047,1.85352l0.60384,0.99805l1.23047,2.06263l0.64941,1.02656l0.59245,1.02656l1.19629,2.05313l1.07097,2.06263l0.47851,1.02656l0.99121,2.05312l1.0026,2.05312l0.94564,2.06263l0.38737,1.02656l0.82031,2.05313l0.46712,1.03607l0.79753,2.05313l0.3418,1.02656l0.36458,1.02656l0.64941,2.06263l0.66081,2.05313l0.3418,1.02656l0.59245,2.05313l0.55827,2.06263l0.5013,2.05313l0.43294,2.05312l0.20508,1.03607l0.25065,1.02656l0.51269,2.05312l0.22786,1.02656l0.18229,1.02656l0.31901,2.06263l0.1595,1.02656l0.38737,2.05312l0.23926,1.02656l0.1709,1.03607l0.21647,1.02656l0.25065,2.05313l0.04557,1.02656l0.02279,1.02656v9.25807h9.06901v5.14232h546.14583v-421.55599h-442.19401v2.06263h-9.90072l-0.82031,-1.02656M1031.78092,443.3776h-6.59668l-0.82031,1.02656v18.50664l0.82031,1.03607h6.59668v-20.56927M934.43717,444.40417h-6.59668v19.54271h6.59668v-19.54271M540.09473,462.91081h-223.56934l-1.58366,0.06653l-1.40137,0.11406l-0.63802,0.05703l-0.69499,-0.05703l-1.48112,-0.11406l-1.62923,-0.06653h-208.72396v421.55599h439.72168v-116.18216l1.43555,-0.25664l0.44434,-0.02852l0.59245,-0.74141h-8.2487v-11.3112h-3.30404l-1.65202,-0.02852l-0.82031,-0.05703l-1.65202,-0.31367l-0.82031,-0.22812l-1.65202,-0.32318l-0.82031,-0.04753l-1.65202,-0.11406l-1.65202,-0.35169l-0.82031,-0.28516l-1.65202,-0.65586l-1.65202,-0.68438l-1.65202,-0.59883l-0.82031,-0.22812l-1.65202,-0.39922l-1.65202,-0.51328l-1.65202,-0.65586l-0.82031,-0.34219l-1.65202,-0.74141l-0.82031,-0.43724l-1.65202,-0.76992l-0.8317,-0.28516l-1.65202,-0.62734l-1.64062,-0.82695l-0.8317,-0.5418l-1.65202,-1.08359l-1.64063,-1.14063l-0.83171,-0.5418l-1.65202,-1.15013l-1.64062,-1.31172l-0.83171,-0.71289l-1.65202,-1.2832l-0.82031,-0.59883l-1.65202,-1.32122l-0.82031,-0.68437l-1.65202,-1.39727l-0.83171,-0.74141l-1.64063,-1.71094l-1.65202,-1.89154l-0.83171,-0.88398l-1.64063,-1.65391l-0.83171,-0.85547l-0.82031,-0.88398l-1.65202,-1.97708l-0.82031,-1.02656l-1.58366,-2.05313l-0.71777,-1.02656l-0.6836,-1.02656l-1.33301,-2.06263l-0.70638,-1.02656l-1.58366,-2.05312l-1.58366,-2.06263l-1.32161,-2.05313l-0.52409,-1.02656l-1.014,-2.05312l-1.0026,-2.06263l-0.94564,-2.05312l-0.41016,-1.02656l-0.99121,-2.06263l-0.59245,-1.02656l-1.11654,-2.05313l-0.87728,-2.05312l-0.31901,-1.03607l-0.59245,-2.05312l-0.31901,-1.02656l-0.76334,-2.05313l-0.75195,-2.06263l-0.62663,-2.05313l-0.27344,-1.02656l-0.54688,-2.06263l-0.82031,-3.07969l-0.28483,-1.02656l-0.5013,-2.06263l-0.20508,-1.02656l-0.43294,-2.05313l-0.25065,-1.02656l-0.51269,-2.06263l-0.22786,-1.02656l-0.1595,-1.02656l-0.11393,-1.02656l-0.06836,-2.06263v-1.02656l-0.06836,-2.05312l-0.25065,-2.05312l-0.18229,-1.03607l-0.25065,-2.05313l-0.04557,-1.02656l-0.02278,-2.05312l-0.02279,-1.03607l-0.04557,-1.02656l-0.25065,-1.99609l-0.29623,-1.59688l-0.21647,-1.54935l1.24186,-0.25664l1.28743,-0.3707l1.59505,-0.31367l0.8317,-0.05703l1.65202,-0.02852h80.84635v-10.27513h5.77636v-170.68503M551.63607,634.6224l-1.23047,0.25664l-1.28743,0.3707l-1.60644,0.31367l-0.82031,0.05703l-1.65202,0.02852h-9.06901v7.19544l0.82031,1.02656h15.67708v-4.10625l-0.02279,-1.03607l-0.02279,-0.96953l-0.15951,-1.02656l-0.02279,-0.57031l-0.60384,-1.53984M551.63607,755.94687h-15.66569v9.24857h2.5179l1.60644,-0.02852l0.82031,-0.05703l1.65202,-0.31367l0.82031,-0.22813l1.65202,-0.31367l0.83171,-0.05703l1.64062,0.05703l1.60644,0.31367l1.28743,0.3707l1.23047,0.25664v-9.24857M927.84049,881.3776h-6.60807l-0.82031,1.02656v18.50664l0.82031,1.03607h6.60807v-20.56927M823.88867,882.40417v19.54271h6.59668v-19.54271zM830.48535,882.40417" fill="#050505" stroke-width="1"/>\n \n

<path d="M122.32381,96.51942h129.61019v73.12682h-129.61019v-73.12682M251.15763,97.50614h-128.04667v71.15339h128.04667v-71.15339M132.48128,107.3916h92.90527l0.78715,0.02741l1.56352,0.21927l0.77637,0.24668l1.56352,0.90449l1.56352,1.2334l0.77637,0.65781l1.54195,1.35217l1.41255,1.48008l0.62541,0.79486l1.08907,1.58971l0.49601,0.76745l0.88419,1.68108l0.80872,1.89121l0.34505,0.98672l0.40975,0.98672l0.61463,1.98257l0.19409,0.98672l0.17253,0.98672l0.30192,1.97344l0.17253,0.99585l0.23722,1.97344l0.0647,1.97344l-0.02156,0.98672l-0.04313,0.99586l-0.23722,1.97344l-0.19409,0.98672l-0.40975,1.97344l-0.21566,0.99586l-0.33427,0.98672l-0.6901,1.97344l-0.32349,0.98672l-0.72245,1.98257l-0.94889,1.97344l-1.34786,1.97344l-1.54195,1.95517l-0.77637,0.9319l-1.56352,1.58971l-1.56352,1.17858l-0.77637,0.41113l-0.77637,0.38372l-0.78715,0.21927l-0.77637,0.16445l-1.56352,0.08223h-93.69242v-50.39575M133.25765,155.81391h93.69242l0.78715,-0.02741l1.56352,-0.27409l0.77637,-0.32891l0.77637,-0.46595l1.56352,-1.28822l0.78715,-0.79486l0.77637,-0.85881l1.49882,-1.89121l0.64697,-0.98672l0.60384,-0.98672l0.95968,-1.98257l0.36662,-0.98672l0.40975,-0.98672l0.63619,-1.97344l0.21566,-0.98672l0.40975,-1.98257l0.38818,-1.97344l0.21566,-0.98672l0.35583,-1.98257l0.08626,-1.97344l-0.26957,-1.97344l-0.17253,-0.98672l-0.21566,-0.99585l-0.43132,-1.97344l-0.23722,-0.98672l-0.51758,-1.98257l-0.59306,-1.97344l-0.8195,-1.97344l-0.53914,-0.98672l-0.54993,-0.99586l-1.18612,-1.89121l-1.32629,-1.64453l-0.73324,-0.71263l-1.54195,-1.28822l-0.78715,-0.55731l-0.77637,-0.54818l-1.56352,-0.79486l-0.77637,-0.21927l-1.56352,-0.21927l-0.78715,-0.02741h-92.12891v46.44887" fill="#050505" stroke-width="1"/>\n \n

<path d="M358.91093,490.83233h146.78731v60.29034h-146.78731v-60.29034M504.13473,492.81491h-143.67106v56.32519l0.78715,0.99585h142.88391v-57.32105M363.5907,494.78835h45.28809v51.3916h-46.06445v-50.40488l0.77637,-0.98672M454.94324,494.78835h46.06445v51.3916h-46.06445v-51.3916M408.09163,496.76178h-43.72457l-0.77637,0.99585v47.43559h17.17713v-5.92945h11.7102v5.92945h15.61361v-48.43144M500.23132,497.75764l-1.17533,-0.72177l-0.43132,-0.02741l-0.77637,-0.19186l-0.74402,-0.02741l-0.77637,-0.02741h-40.60832v48.43144h16.40076v-5.92945h12.49735v5.92945h15.61361v-37.55927l-0.02156,-1.97344l-0.04313,-0.98672l-0.17253,-1.98257l-0.0647,-0.98672l0.0647,-1.91862l0.23722,-2.02826M400.28483,500.7178l1.17533,-0.95931l1.21847,-0.57559l1.46647,-0.35632l1.60665,-0.08223l0.78715,0.98672v1.48008l-0.08626,1.5349l-0.17253,0.91363l-0.3127,0.90449l-1.07829,1.34303l-0.72245,0.32891l-0.73324,0.05482l-0.73324,-0.16445l-1.24003,-0.95931l-0.77637,-1.50749l-0.20488,-0.94104l-0.12939,-0.52077l-0.0647,-1.48008M415.12207,498.74436h32.79073v1.97344h-28.10018l-1.56352,-0.02741l-1.47725,-0.24668l-0.62541,-0.38373l-0.42053,-0.19186l-0.60384,-1.12376M492.42452,500.7178l1.16455,-0.79486l0.4421,-0.16445l0.73323,-0.35632l1.17534,-0.41113l1.16455,-0.24668l0.76558,1.48008l0.1294,0.54817l0.30192,0.98672l0.04313,1.90035l-0.25879,0.90449l-1.06751,1.37044l-0.71167,0.35632l-0.76559,0.13704l-0.7548,-0.13704l-1.32629,-0.95931l-0.77637,-1.61712l-0.23722,-1.51662l-0.02157,-1.48008M405.75175,501.70451l-1.16455,-0.71263l-0.39897,-0.02741l-0.77637,-0.19186l-1.56352,-0.05482v3.95601h3.12704l0.77637,-0.98672v-1.98257M496.32792,500.7178l-1.56352,0.24668l-0.43132,0.02741l-1.1322,0.71263l0.19409,1.42526l0.25879,1.10549l0.33427,1.42526h2.33989l0.77637,-0.98672v-2.96929l-0.77637,-0.98672M415.12207,507.63396h30.45085l0.76558,0.02741l0.71167,0.02741l0.62541,0.19186l0.40975,0.02741l0.61462,0.71263h-30.45085l-0.76558,-0.02741l-0.71167,-0.02741l-0.62541,-0.19186l-0.42053,-0.02741l-0.60384,-0.71263M415.90922,516.5327h28.88733l0.7548,0.02741l0.72245,0.02741l0.62541,0.19186l0.40975,0.02741l0.60384,0.71263l-1.16455,0.71263l-0.43132,0.02741l-0.78715,0.19186l-0.73324,0.02741l-0.78715,0.02741h-28.10018v-1.97344M415.90922,524.43559h32.00358v1.97344h-32.00358v-1.97344M415.90922,533.33433h32.00358v1.97344h-32.00358v-1.97344M390.91451,540.2505h-9.35954v4.94273h9.35954v-4.94273M415.12207,542.22394l1.17533,-0.41113l1.14299,-0.3015l1.28316,-0.08223l0.60384,0.02741l1.32629,-0.08223l0.73324,-0.08223l1.54195,-0.05482h24.98393v1.97344h-29.6637l-0.76558,-0.02741l-0.71167,-0.02741l-0.62541,-0.19186l-0.42053,-0.02741l-0.60384,-0.71263M483.0542,541.23722h-10.14669l0.25879,1.91862l0.30192,0.76745l0.47445,0.55731l0.60384,0.38373l0.72245,0.21927l0.7548,0.08223l1.56352,0.02741h5.46692v-3.95601" fill="#050505" stroke-width="1"/>\n \n

<path d="M198.06275,633.14824h29.67448v33.59412h26.54744v-33.59412h29.6637v33.59412h30.45085v81.03885h-30.45085v34.58997h-29.6637v-33.60326l-0.78715,-0.98672h-25.76029v34.58997h-29.67448v-34.58997h-29.6637v-81.03885h29.6637v-33.59412M226.95007,634.13496h-27.32381v5.92945h27.32381v-5.92945M282.38485,634.13496h-27.32381v5.92945h27.32381v-5.92945M200.40263,641.05113l-0.56071,0.76745l-0.02157,0.52077l-0.15096,0.79486l-0.02157,0.91363l-0.02156,1.94603v21.74436l1.60665,-0.57558l0.77637,-0.201l0.74402,-0.13704l1.55273,-0.08223h22.64404v-24.70451h-22.64404l-0.77637,-0.02741l-0.73324,-0.02741l-0.78715,-0.19186l-0.43132,-0.02741l-1.17533,-0.71263M282.38485,642.03785h-27.32381v24.70451h27.32381v-24.70451M313.62284,668.72493h-144.44743v77.08284h144.44743v-77.08284M226.95007,747.78121h-27.32381v25.70037h27.32381v-25.70037M282.38485,747.78121h-27.32381v25.70037h27.32381v-25.70037M226.95007,775.45501h-27.32381v5.92945h27.32381v-5.92945M282.38485,775.45501h-27.32381v5.92945h27.32381v-5.92945" fill="#050505" stroke-width="1"/>\n \n

<path d="M586.11694,491.82819h164.75159v87.95501h-6.25407l-0.77637,-0.02741l-0.78715,-0.08223l-1.55273,-0.5025l-1.56352,-0.76745l-0.78715,-0.3015l-1.55273,-0.27409l-0.78715,-0.02741h-140.54403v1.98257h-10.14669v-87.95501M750.08138,492.81491h-162.40092v85.97244h7.8068v-76.09611h146.78731v76.09611h7.8068v-85.97244M668.09916,503.68709h-71.04838l-0.78715,0.98672v71.15339h71.83553v-72.1401M740.71106,503.68709h-71.04838v72.1401h71.04838v-72.1401" fill="#050505" stroke-width="1"/>\n \n

<path d="M565.03642,740.86504h78.07882v88.94173h-6.24329l-1.56352,0.02741l-0.78715,0.08223l-1.55273,0.603l-0.78715,0.61213l-1.56352,1.64453l-0.77637,0.90449l-1.49882,1.67194l-0.66854,0.76745l-1.2616,1.57144l-0.64697,0.71263l-0.67932,0.57559l-0.73324,0.38373l-0.7548,0.21927l-1.56352,0.10963h-35.91777l-1.56352,-0.10963l-1.56352,-0.603l-1.55273,-1.37044l-0.78715,-0.91363l-0.77637,-0.95931l-0.78715,-0.98672l-1.56352,-1.94603l-1.55273,-1.67194l-0.78715,-0.61213l-1.56352,-0.603l-1.55273,-0.10964h-7.03044v-88.94173M575.18311,741.85176h-9.37032v86.96829h8.59395l0.77637,-0.98672v-85.98158M632.1814,741.85176h-56.21114v16.80163h56.21114v-16.80163M642.33887,741.85176h-9.37032v86.96829h9.37032v-86.96829M632.1814,760.63596h-56.21114v69.17081l1.16455,0.76745l0.4421,0.52991l0.77637,0.79486l1.52039,1.8638l0.77637,0.98672l1.56352,1.87294l1.56352,1.37044l0.77637,0.38372l0.78715,0.21927l1.55273,0.10964h33.57788l1.56352,-0.02741l1.54195,-0.3015l0.73324,-0.38372l1.30473,-1.29735l0.56071,-0.76745l1.08907,-1.48008l1.18612,-1.37044l1.39099,-1.50749l0.6901,-0.84967l1.08907,-1.90035l0.47444,-1.97344l0.08626,-1.98257v-64.22808" fill="#050505" stroke-width="1"/>\n \n

<path d="M1127.98889,496.76178h78.07882v88.95087h-11.72099l-0.24801,1.2334l-0.248,0.41113l-0.36662,0.76745l-0.47445,0.76745l-0.54993,0.84967l-1.29395,1.81812l-1.41255,1.61712l-0.62541,0.76745l-0.40975,0.41113l-0.61462,1.2334h-39.03402l-1.56352,-0.10964l-1.56352,-0.60299l-1.56352,-1.37044l-0.77637,-0.90449l-0.78715,-0.95931l-0.77637,-0.99585l-1.56352,-1.94603l-1.56352,-1.67194l-0.77637,-0.603l-1.56352,-0.60299l-1.56352,-0.10964h-7.01965v-88.95087M1138.13558,497.75764h-9.37032v86.95916h9.37032v-86.95916M1194.34672,497.75764h-55.43477v16.79249h56.22192v-15.80577l-0.78715,-0.98672M1204.50419,497.75764h-8.59396v86.95916h8.59396l0.77637,-0.98672v-84.98572l-0.77637,-0.98672M1195.13387,516.5327h-56.22192v64.23722l0.08626,1.97344l0.47445,1.97344l1.08907,1.98257l0.72245,0.98672l1.53117,1.97344l1.56352,1.95516l0.78715,0.90449l1.55273,1.37044l0.78715,0.38373l1.56352,0.3015l1.56352,0.02741h33.5671l1.56352,-0.10964l0.77637,-0.21927l0.76559,-0.38373l1.41256,-1.34303l0.62541,-0.84968l1.09985,-1.62626l1.04594,-1.39785l0.51758,-0.65781l1.06751,-1.26081l0.62541,-0.65781l1.43412,-1.37958v-68.18409" fill="#050505" stroke-width="1"/>\n \n

<path d="M1260.71533,500.7178h80.42948v89.92845h-5.46692l-1.56352,0.02741l-0.78715,0.08223l-1.55273,0.61213l-0.78715,0.60299l-1.56352,1.67194l-1.55273,1.94603l-0.78715,0.98672l-1.56352,1.95517l-1.55273,1.67194l-0.78715,0.603l-0.77637,0.38372l-1.56352,0.3015l-0.77637,0.02741h-35.91777l-1.56352,-0.02741l-1.56352,-0.21927l-0.77637,-0.24668l-1.56352,-0.98672l-1.49882,-1.56231l-1.32629,-1.87294l-0.60384,-0.9319l-1.24003,-1.67194l-0.56071,-0.71263l-0.45288,-0.82226l-0.28036,-0.41113l-0.29114,-1.40699h-11.7102v-89.92845M1271.64917,501.70451h-8.58317l-0.78715,0.98672v86.96829h9.37032v-87.95501M1329.42383,501.70451h-56.21114v17.78835h56.21114v-17.78835M1340.35767,501.70451h-8.58317l-0.78715,0.98672v86.96829h9.37032v-87.95501M1329.42383,520.47958h-56.21114v66.21979l0.08626,1.97344l0.47445,1.97344l1.08907,1.98257l0.71167,0.98672l1.54195,1.97344l1.56352,1.95516l0.77637,0.90449l1.56352,1.37044l0.77637,0.38372l1.56352,0.3015l0.78715,0.02741h34.35425l0.77637,-0.02741l1.56352,-0.3015l0.77637,-0.38372l1.56352,-1.37044l0.78715,-0.90449l1.55273,-1.95516l1.54195,-1.97344l0.72245,-0.98672l1.07829,-1.98257l0.47445,-1.97344l0.08626,-1.97344v-66.21979" fill="#050505" stroke-width="1"/>\n \n

<path d="M1022.57548,657.85276h101.51001v30.63396l0.05391,1.98257l0.22644,1.97344l0.12939,0.98672l0.02156,0.98672l-0.02156,0.98672l-0.12939,0.99586l-0.22644,1.97344l-0.05391,1.97344v158.12168h-101.51001v-200.61454M1122.52197,659.82619h-98.38298v33.60325h98.38298v-33.60325M1117.05505,694.41617h-92.91606v28.66053l1.17533,-0.24668l1.21847,-0.38373l0.73323,-0.21927l0.77637,-0.27409l0.78715,-0.21927l0.77637,-0.27409l1.56352,-0.49336l0.77637,-0.21927l1.56352,-0.49336l0.77637,-0.27409l0.78715,-0.21927l0.77637,-0.28323l0.78715,-0.21927l1.55273,-0.52077l0.78715,-0.3015l0.77637,-0.3015l1.56352,-0.57559l1.56352,-0.41113l0.77637,-0.19186l0.78715,-0.19186l1.56352,-0.46595l0.77637,-0.27409l0.77637,-0.21927l0.78715,-0.24668l1.56352,-0.32891l0.77637,-0.10964l1.56352,-0.32891l0.77637,-0.24668l1.56352,-0.49336l0.77637,-0.21927l0.78715,-0.28322l0.77637,-0.21927l3.12704,-0.98672l0.77637,-0.27409l1.56352,-0.46595l0.78715,-0.19186l1.55273,-0.38372l0.78715,-0.21927l0.77637,-0.27409l1.56352,-0.60299l0.77637,-0.27409l1.56352,-0.41113l1.56352,-0.38373l1.56352,-0.46595l1.56352,-0.52991l0.77637,-0.3015l1.56352,-0.603l0.77637,-0.3015l1.56352,-0.52077l0.78715,-0.21927l0.77637,-0.27409l0.77637,-0.21927l1.56352,-0.49336l0.78715,-0.24668l1.55273,-0.3015l1.56352,-0.16445l1.56352,-0.32891l0.78715,-0.27409l1.55273,-0.603l0.78715,-0.27409l1.56352,-0.41113l1.55273,-0.42027l3.12704,-1.15117l0.77637,-0.21927l1.56352,-0.38373l0.78715,-0.19186l1.55273,-0.46595l0.78715,-0.27409l0.77637,-0.21927l0.78715,-0.24668l0.77637,-0.19186l0.78715,-0.19186l1.55273,-0.41113l0.78715,-0.27409l1.56352,-0.603l0.77637,-0.27409l0.77637,-0.21927l1.56352,-0.38373l1.47725,-0.47509l0.62541,-0.35631l0.40975,-0.16445l0.61462,-0.79486M1122.52197,696.39874h-1.56352l-1.17533,1.04154l-0.43132,0.32891l-1.52039,1.20599l-1.56352,1.12376l-0.77637,0.49336l-1.56352,1.12376l-0.77637,0.61213l-1.56352,1.09635l-0.77637,0.46595l-1.56352,0.82227l-1.56352,0.98672l-1.56352,1.17858l-0.77637,0.54818l-0.78715,0.58472l-0.77637,0.46595l-1.56352,1.01413l-1.56352,1.12376l-1.56352,1.20599l-1.55273,1.12376l-0.78715,0.46595l-1.56352,0.99585l-0.77637,0.54818l-0.77637,0.43854l-1.56352,1.01413l-0.78715,0.57559l-0.77637,0.54818l-1.56352,1.20599l-0.77637,0.54818l-0.78715,0.55731l-1.56352,0.90449l-0.77637,0.41113l-1.56352,0.98672l-1.56352,1.09635l-0.77637,0.57559l-0.77637,0.46595l-1.56352,1.01413l-0.78715,0.58472l-0.77637,0.54818l-1.56352,1.20599l-0.77637,0.57559l-3.12704,2.35716l-1.56352,1.02326l-0.77637,0.43854l-1.56352,0.98672l-0.77637,0.57558l-1.56352,1.09635l-0.78715,0.46595l-0.77637,0.54818l-0.77637,0.43854l-1.56352,0.98672l-0.78715,0.55731l-0.77637,0.43854l-1.56352,1.01413l-0.77637,0.57559l-0.78715,0.54818l-1.56352,1.20599l-0.77637,0.57558l-1.56352,1.18772l-1.56352,1.20599l-1.55273,1.12376l-0.78715,0.46595l-0.77637,0.54817l-0.78715,0.43854l-0.77637,0.54818l-0.77637,0.43854l-0.78715,0.54817l-0.77637,0.43854l-0.78715,0.55732l-0.77637,0.43854l-0.78715,0.54818l-1.5096,0.95931l-0.77637,0.41113l-0.4421,0.32891l-1.17533,0.49336l-0.53915,-1.48008l-0.28035,-0.54818l-0.8842,-1.92776l-0.49601,-0.98672l-0.48523,-0.98672l-0.57149,-0.98672l-1.07829,-1.97344l-0.99202,-1.98258l-0.47445,-0.98672l-1.11063,-1.97344l-0.58228,-0.98672l-0.54993,-0.99585l-1.07829,-1.97344l-0.54992,-0.98672l-1.14299,-1.97344l-0.61462,-0.96845l-0.53915,-0.90449l-0.64697,-0.79486l-0.32348,-0.52077l-1.11064,-0.76745v128.47443h98.38298v-160.09512M1114.71517,697.38546h-1.56352l-1.17534,0.95931l-1.21846,0.65781l-0.73324,0.32891l-1.56352,0.60299l-1.55273,0.41113l-0.78715,0.19186l-0.77637,0.19186l-1.56352,0.46595l-0.78715,0.27409l-1.55273,0.49336l-0.78715,0.21927l-1.56352,0.5299l-0.77637,0.3015l-1.56352,0.603l-0.77637,0.27409l-1.56352,0.32891l-1.56352,0.10963l-0.77637,0.05482l-0.78715,0.13704l-0.77637,0.19186l-0.77637,0.27409l-1.56352,0.603l-0.78715,0.27409l-0.77637,0.21927l-1.56352,0.38373l-0.77637,0.21927l-1.56352,0.57559l-1.56352,0.60299l-1.56352,0.52991l-1.56352,0.46595l-0.77637,0.19186l-1.56352,0.38372l-0.77637,0.21927l-0.78715,0.27409l-1.56352,0.60299l-0.77637,0.27409l-1.56352,0.41113l-0.77637,0.19186l-1.56352,0.41113l-0.77637,0.19186l-1.56352,0.38372l-0.78715,0.21927l-1.55273,0.57559l-1.56352,0.66695l-1.56352,0.6304l-0.77637,0.27409l-1.56352,0.32891l-1.56352,0.16445l-0.78715,0.13704l-1.55273,0.41113l-0.78715,0.21927l-0.77637,0.27409l-1.56352,0.46595l-0.77637,0.19186l-1.56352,0.41113l-0.78715,0.24668l-1.55273,0.68522l-0.78715,0.35631l-1.56352,0.41113l-0.77637,0.10964l-1.56352,0.36545l-0.77637,0.26495l-1.56352,0.61213l-0.78715,0.3015l-0.77637,0.24668l-1.56352,0.52077l-0.77637,0.3015l-1.56352,0.603l-0.77637,0.27409l-0.78715,0.21927l-1.56352,0.38373l-1.55273,0.41113l-1.52039,0.3015l-1.60665,0.08223l0.08626,1.48921l0.45288,1.5349l0.93811,1.91862l1.11064,1.97344l1.01359,1.98257l0.45288,0.95931l0.97046,1.78158l0.57149,0.82227l1.08907,1.59885l0.99202,1.78158l0.47445,0.95931l1.07829,1.97344l0.57149,0.99586l0.99202,1.97344l0.47445,0.98672l1.05672,1.91862l0.36662,0.55731l0.58228,1.48008l1.16455,-0.52077l0.4421,-0.35631l0.77637,-0.52077l0.73324,-0.58472l1.56352,-1.09635l1.56352,-0.9319l1.56352,-0.98672l1.56352,-1.09635l0.77637,-0.57559l1.56352,-1.02326l0.77637,-0.46595l0.78715,-0.57559l0.77637,-0.54818l1.56352,-1.20599l0.77637,-0.54818l0.78715,-0.57559l0.77637,-0.46595l0.78715,-0.52077l0.77637,-0.41113l0.78715,-0.47509l0.77637,-0.41113l1.56352,-1.01413l0.77637,-0.603l1.56352,-1.26081l0.77637,-0.63041l1.56352,-1.12376l0.78715,-0.49336l1.55273,-1.1329l1.56352,-1.20599l0.78715,-0.54818l0.77637,-0.57558l0.77637,-0.46595l0.78715,-0.52077l1.56352,-0.87708l0.77637,-0.41113l1.56352,-0.99585l0.77637,-0.54818l0.78715,-0.49336l0.77637,-0.49336l0.78715,-0.43854l1.55273,-1.01413l0.78715,-0.60299l1.56352,-1.28822l1.55273,-1.32476l0.78715,-0.6304l0.77637,-0.6304l1.56352,-1.12376l0.78715,-0.46595l0.77637,-0.54818l0.77637,-0.43854l0.78715,-0.54818l1.56352,-0.99585l0.77637,-0.43854l1.56352,-0.98672l0.77637,-0.54818l0.78715,-0.43854l0.77637,-0.54818l0.77637,-0.43854l1.56352,-1.01413l0.78715,-0.57559l0.77637,-0.55731l0.77637,-0.60299l1.56352,-1.09635l1.56352,-0.87708l0.78715,-0.41113l1.55273,-1.04154l0.78715,-0.68522l1.56352,-1.35217l0.77637,-0.54818l1.47725,-0.98672l0.60384,-0.49336l0.76559,-1.01413l0.28035,-1.37044" fill="#050505" stroke-width="1"/>\n \n

<path d="M1290.38981,674.65438h96.81946v193.69837h-96.81946v-158.12168h-1.56352v-1.97344l0.89498,-0.77658l0.14018,-0.52077l0.3127,-0.79486l0.19409,-1.8638l0.02157,-1.97344v-27.67381M1385.64575,676.62782h-93.69243v32.61654h92.91606l0.77637,-0.98672v-31.62982M1298.19661,710.23108l-0.77637,0.98672l1.16455,0.02741l1.21846,0.19186l0.73324,0.19186l0.78715,0.27409l1.55273,0.60299l0.78715,0.27409l1.56352,0.41113l1.56352,0.46595l0.77637,0.35632l1.56352,0.69436l1.56352,0.41113l1.55273,0.27409l0.78715,0.16445l1.56352,0.41113l0.77637,0.19186l1.56352,0.41113l1.56352,0.57558l1.56352,0.603l1.55273,0.52077l1.56352,0.46595l1.56352,0.38372l1.56352,0.42027l0.77637,0.26495l1.56352,0.61213l0.77637,0.27409l3.12703,0.82227l0.77637,0.27409l1.56352,0.603l0.78715,0.27409l1.56352,0.35632l0.77637,0.10964l1.56352,0.32891l1.56352,0.46595l1.55273,0.52077l0.78715,0.3015l1.56352,0.61213l0.77637,0.3015l1.56352,0.52077l0.77637,0.21927l0.78715,0.24668l0.77637,0.19186l1.56352,0.38373l0.77637,0.19186l1.56352,0.46595l0.78715,0.27409l0.77637,0.21927l0.77637,0.24668l1.56352,0.32891l0.78715,0.10964l1.55273,0.32891l1.56352,0.46595l0.78715,0.27409l0.77637,0.24668l1.56352,0.603l1.56352,0.66695l1.56352,0.6304l1.55273,0.49336l1.56352,0.38372l0.78715,0.21927l0.77637,0.27409l1.56352,0.60299l0.77637,0.27409l1.56352,0.41113l1.56352,0.38372l1.56352,0.41113l1.55273,0.38372l0.78715,0.19186l0.77637,0.21927l1.52039,0.3015l1.60665,0.08223v-26.67795h-87.44914M1292.16899,712.97196l-0.02156,0.52077l-0.15096,0.80399l-0.02156,0.90449l-0.02157,0.95931v150.21879h93.69243v-123.54084l-0.94889,0.36545l-0.78715,0.95931l-0.91654,1.67194l-0.49601,0.95931l-1.05672,1.97344l-1.15377,1.98258l-0.58227,0.98672l-0.54993,0.98672l-1.07829,1.97344l-0.53914,0.99585l-0.59306,0.98672l-1.11064,1.97344l-0.47445,0.98672l-0.99202,1.98257l-1.02437,1.91862l-0.43132,0.98672l-0.25879,0.54818l-0.28035,1.48921l-1.17534,-0.66695l-0.43132,-0.32891l-0.78715,-0.49336l-1.5096,-1.01413l-0.77637,-0.52077l-1.56352,-1.09635l-0.78715,-0.57559l-0.77637,-0.46595l-1.56352,-1.02326l-0.77637,-0.57559l-0.78715,-0.54817l-1.56352,-1.20599l-0.77637,-0.54817l-0.77637,-0.57559l-0.78715,-0.46595l-1.56352,-0.98672l-0.77637,-0.54818l-0.77637,-0.44768l-1.56352,-1.01413l-1.56352,-1.12376l-1.56352,-1.20599l-1.56352,-1.12376l-1.56352,-1.02326l-0.77637,-0.46595l-0.77637,-0.57559l-0.78715,-0.54818l-1.56352,-1.20599l-0.77637,-0.54818l-0.77637,-0.57559l-1.56352,-1.01413l-0.78715,-0.43854l-0.77637,-0.55732l-0.77637,-0.46595l-0.78715,-0.57559l-0.77637,-0.54818l-1.56352,-1.20599l-0.78715,-0.54818l-0.77637,-0.57559l-1.56352,-1.01413l-0.77637,-0.43854l-0.78715,-0.55731l-1.55273,-0.98672l-0.78715,-0.46595l-1.56352,-1.17858l-0.77637,-0.68522l-1.56352,-1.2334l-1.56352,-0.95931l-0.77637,-0.46595l-0.77637,-0.42027l-1.56352,-0.95931l-0.78715,-0.54818l-1.56352,-0.98672l-0.77637,-0.46595l-1.56352,-1.17858l-0.77637,-0.71263l-1.56352,-1.37958l-1.56352,-1.17858l-0.77637,-0.46595l-0.78715,-0.54818l-1.55273,-0.95931l-0.78715,-0.41113l-0.77637,-0.46595l-1.56352,-0.96845l-1.56352,-1.2334l-0.77637,-0.68522l-1.56352,-1.15117l-1.56352,-0.90449l-0.77637,-0.41113l-1.56352,-0.98672l-0.73324,-0.55731l-0.78715,-0.49336l-0.43132,-0.35632l-1.17533,-0.52077zM1299.47978,713.94041l0.58227,1.04154l1.28316,1.09635l0.7548,0.46595l1.56352,1.01413l1.56352,1.17858l1.56352,1.1329l0.77637,0.49336l1.56352,1.09635l0.77637,0.57559l1.56352,0.98672l0.77637,0.41113l1.56352,0.90449l0.78715,0.54818l1.55273,1.18772l1.56352,1.28822l1.56352,1.26081l1.56352,1.12376l0.77637,0.46595l0.78715,0.54818l0.77637,0.43854l1.56352,1.02326l0.77637,0.57559l1.56352,1.09635l1.56352,0.98672l0.77637,0.43854l1.56352,1.01413l1.56352,1.18772l1.56352,1.12376l0.77637,0.49336l1.56352,1.09635l0.78715,0.57559l1.55273,0.98672l1.56352,0.95931l0.78715,0.55731l1.55273,1.34303l0.78715,0.71263l1.56352,1.17858l0.77637,0.46595l3.12704,1.97344l0.77637,0.55732l0.77637,0.43854l1.56352,1.01413l0.78715,0.57558l0.77637,0.54818l1.56352,1.20599l0.77637,0.54818l0.78715,0.57559l0.77637,0.47509l0.78715,0.54818l0.77637,0.43854l1.56352,1.01413l0.77637,0.57559l0.78715,0.54817l1.55273,1.20599l0.78715,0.54817l0.77637,0.57559l1.56352,1.02326l0.78715,0.46595l0.77637,0.57559l1.5096,1.09635l0.4421,0.35631l1.17534,0.68522l0.40975,-1.45267l0.28036,-0.49336l0.40975,-0.84967l0.98124,-1.54403l1.03516,-1.67194l0.52836,-0.9319l0.51758,-0.95931l1.04594,-1.98257l0.5068,-0.98672l1.04594,-1.97344l0.51758,-0.98672l1.04594,-1.98258l1.03516,-1.97344l0.52836,-0.98672l0.51758,-0.98672l0.97046,-1.98257l0.39897,-0.9319l0.49601,-1.5349l0.21566,-1.48008l-1.16455,-0.24668l-0.4421,-0.16445l-0.77637,-0.27409l-0.74402,-0.3015l-1.55273,-0.57558l-0.78715,-0.22841l-1.56352,-0.38372l-0.77637,-0.19186l-1.56352,-0.41113l-0.77637,-0.19186l-1.56352,-0.41113l-0.77637,-0.27409l-1.56352,-0.60299l-0.78715,-0.27409l-1.55273,-0.41113l-1.56352,-0.41113l-3.12704,-1.15117l-1.56352,-0.41113l-1.56352,-0.42027l-0.77637,-0.26495l-1.56352,-0.61213l-0.77637,-0.27409l-1.56352,-0.41113l-0.77637,-0.19186l-0.78715,-0.19186l-1.56352,-0.46595l-0.77637,-0.27409l-0.78715,-0.21927l-0.77637,-0.24668l-1.56352,-0.32891l-0.77637,-0.10964l-1.56352,-0.41113l-1.56352,-0.68522l-0.77637,-0.35631l-1.56352,-0.46595l-1.56352,-0.38373l-1.56352,-0.47509l-0.77637,-0.27409l-1.56352,-0.49336l-0.77637,-0.21927l-0.78715,-0.27409l-0.77637,-0.21927l-1.56352,-0.49336l-0.77637,-0.27409l-1.56352,-0.46595l-0.78715,-0.19186l-1.55273,-0.38373l-0.78715,-0.19186l-1.56352,-0.46595l-1.55273,-0.52077l-1.56352,-0.603l-1.56352,-0.57558l-1.56352,-0.42027l-1.56352,-0.38372l-1.56352,-0.46595l-0.77637,-0.27409l-0.77637,-0.24668l-1.56352,-0.603l-1.56352,-0.57558l-1.56352,-0.35632l-0.77637,-0.10964l-1.56352,-0.32891l-1.56352,-0.41113l-1.56352,-0.38372l-1.56352,-0.49336l-1.5096,-0.6304l-0.4421,-0.22841l-1.16455,-0.43854zM1299.76013,713.19123" fill="#050505" stroke-width="1"/>\n \n

<path d="M1173.2662,762.6094h69.49565v87.95501h-69.49565v-87.95501M1240.42196,763.59611h-64.80509l-0.78715,1.97344h-0.77637v82.02557l1.16455,-0.76745l0.4421,-0.52077l0.77637,-0.79486l0.73324,-0.90449l1.56352,-1.94603l1.56352,-1.98257l3.9034,-4.94273l6.24329,-7.90289l3.12703,-3.95601l0.77637,-0.98672l0.78715,-0.98672l1.56352,-1.97344l0.77637,-0.99586l2.29675,-2.90534l1.60665,-2.02825l-0.60384,1.48008l-0.42053,0.54818l-0.62541,0.98672l-0.71167,0.9319l-1.54195,1.98257l-0.77637,0.98672l-0.78715,0.98672l-1.56352,1.97344l-6.24328,7.91202l-1.56352,1.97344l-2.33988,2.96929l-3.12704,3.94688l-0.77637,0.98672l-1.56352,1.98258l-1.53117,1.97344l-0.72245,0.9319l-0.62541,0.98672l-0.40975,0.54818l-0.61462,1.48921h65.59224l-0.61462,-1.48921l-0.38818,-0.54818l-1.12142,-1.8638l-0.38818,-0.54818l-0.61462,-1.48008l0.98124,0.76745l0.32348,0.49336l1.17534,1.39785l1.05672,0.9319l1.14298,0.35632v-82.02557l-1.16455,0.35632l-1.21847,0.96845l-0.73324,0.76745l-0.78715,0.90449l-1.55273,1.94603l-1.56352,1.98257l-2.33988,2.96016l-6.25407,7.90289l-0.77637,0.99585l-3.12703,3.94688l-0.77637,0.98672l-1.56352,1.98258l-0.77637,0.98672l-1.52039,1.91862l-2.38302,3.02411l0.60384,-1.48008l0.40975,-0.55731l0.62541,-0.98672l0.72245,-0.9319l0.7548,-0.98672l0.78715,-0.98672l0.77637,-0.98672l1.56352,-1.98257l3.11625,-3.94688l6.25407,-7.91202l0.77637,-0.98672l1.56352,-1.97344l0.77637,-0.98672l1.56352,-1.98257l0.78715,-0.98672l1.53117,-1.97344l0.72245,-0.9319l0.62541,-0.99585l0.40975,-0.54818l0.61462,-1.48008M1175.61686,765.56955l1.16455,0.52077l1.21846,0.96845l1.45569,1.56231l1.29395,1.80898l1.11064,1.64453l0.53914,0.72177l0.57149,0.68522l1.29395,1.39785l1.43412,1.64453l0.66854,0.90449l1.1969,1.7633l0.53915,0.79486l1.11063,1.39785l0.62541,0.68522l1.41255,1.50749l0.7548,0.85881l1.49882,1.89121l1.32629,1.89121l0.58227,0.84967l1.17533,1.57144l1.16455,1.48008l1.17533,1.50749l0.60384,0.82226l0.59306,0.84968l1.31551,1.90035l0.74402,0.98672l1.53117,1.97344l0.78715,0.98672l0.77637,0.99585l0.73324,0.9319l0.78715,0.98672l1.60665,2.02825l0.60384,-1.48008l0.42053,-0.54817l0.62541,-0.98672l1.46647,-1.92775l1.52039,-1.8638l0.77637,-0.79486l0.4421,-0.52077l1.17533,-0.76745l-0.61462,1.48008l-0.40975,0.54818l-0.62541,0.98672l-0.72245,0.9319l-1.48804,1.87294l-0.78715,0.79486l-0.43132,0.52077l-1.17534,0.76745v1.97344l1.17534,0.77658l0.43132,0.52077l0.76558,0.79486l1.35864,1.83639l1.2616,1.78157l0.64697,0.8314l0.65775,0.76745l1.33708,1.64453l1.24003,1.69935l0.60384,0.82226l0.56071,0.74917l1.1969,1.48008l0.64697,0.76745l0.67932,0.74004l1.49882,1.67194l0.7548,0.94104l0.74402,0.95931l0.66854,0.95931l1.2616,1.78158l0.64697,0.82227l0.66854,0.76745l1.43412,1.68108l1.29395,1.80899l1.11063,1.64453l0.53915,0.71263l0.57149,0.69436l1.29395,1.39785l1.41256,1.64453l1.08907,1.83639l0.28036,0.54818l0.28035,1.48921l-0.97046,-0.35632l-0.33427,-0.35632l-0.60384,-0.60299l-1.27238,-1.65367l-0.72245,-0.90449l-1.39099,-1.64453l-0.62541,-0.71263l-1.11064,-1.37958l-1.09985,-1.50749l-1.30473,-1.75417l-0.71167,-0.90449l-1.39099,-1.68108l-0.64697,-0.76745l-1.2616,-1.67194l-0.66854,-0.9319l-1.49882,-1.87294l-0.78715,-0.84967l-1.49882,-1.58971l-0.66854,-0.82226l-1.25082,-1.78158l-1.32629,-1.95516l-0.74402,-0.98672l-1.53117,-1.97344l-1.56352,-1.98257l-2.29675,-2.90534l-0.77637,-0.98672l-1.61743,-2.03739l-0.60384,1.48921l-0.40975,0.54818l-0.62541,0.98672l-1.47725,1.80898l-0.73324,0.76745l-1.21847,0.96845l-1.17533,0.35632l0.61463,-1.48921l0.40975,-0.54818l0.62541,-0.98672l0.72245,-0.9319l0.70089,-0.9319l0.78715,-0.98672l1.60665,-2.03739l-0.97046,-0.74004l-0.31271,-0.46595l-0.56071,-0.65781l-1.03516,-1.39785l-0.57149,-0.68522l-0.62541,-0.68522l-1.33708,-1.51662l-0.65775,-0.84967l-1.24003,-1.80899l-1.16455,-1.67194l-0.61463,-0.77658l-0.58227,-0.79486l-1.30473,-1.58971l-1.34786,-1.5349l-1.18612,-1.48921l-0.53915,-0.76745l-0.53914,-0.74004l-0.57149,-0.82227l-1.29395,-1.75417l-1.4449,-1.7633l-0.66854,-0.82227l-0.64698,-0.76745l-0.60384,-0.82227l-0.65775,-0.84967l-1.41256,-1.89121l-1.5096,-1.90035l-1.41256,-1.67194l-0.64697,-0.76745l-0.61462,-0.82226l-1.31551,-1.79071l-1.47725,-1.8638l-1.32629,-1.61712l-0.47445,-0.76745l-0.28036,-0.41113l-0.28035,-1.24253" fill="#050505" stroke-width="1"/>\n \n

<path d="M624.42,375.69823c0,1.13595 -0.92131,2.05727 -2.05727,2.05727h-1.39483v12.04153c0,0.76016 -0.41934,1.4586 -1.09035,1.81588l-6.1862,3.29471l0.32882,1.51998c0.39122,1.80834 -0.05075,3.67119 -1.21276,5.11094c-1.16133,1.43974 -2.88875,2.26539 -4.73892,2.26539h-10.76465v4.0007c0,1.13595 -0.92131,2.05727 -2.05727,2.05727h-2.30105c0.02092,0.11761 0.03394,0.2383 0.03394,0.36208v5.08248c7.98083,0.15772 15.90748,1.23025 23.59275,3.19974c0.94531,0.24207 1.57141,1.10475 1.54638,2.04595v4.38575c1.80525,0.79445 3.07013,2.59764 3.07013,4.69331c0,2.82737 -2.30003,5.1274 -5.12705,5.1274c-2.82737,0 -5.1274,-2.30003 -5.1274,-5.1274c0,-2.09533 1.26488,-3.89852 3.06979,-4.69297v-2.82909c-6.86682,-1.64101 -13.92222,-2.54107 -21.02425,-2.68713v5.52616c1.81554,0.78999 3.08933,2.59936 3.08933,4.70223c0,2.82737 -2.30003,5.1274 -5.1274,5.1274c-2.82703,0 -5.12705,-2.30003 -5.12705,-5.1274c0,-2.08778 1.25596,-3.88481 3.05059,-4.68371v-5.54468c-7.10237,0.14607 -14.15846,1.04612 -21.02459,2.68713v2.82909c1.80491,0.79445 3.06979,2.59764 3.06979,4.69297c0,2.82737 -2.30003,5.1274 -5.12705,5.1274c-2.82737,0 -5.1274,-2.30003 -5.1274,-5.1274c0,-2.09567 1.26488,-3.89887 3.07013,-4.69331v-4.43753c0,-0.93949 0.63672,-1.76102 1.54672,-1.99418c7.68458,-1.96949 15.61158,-3.04236 23.59275,-3.20008v-5.08248c0,-0.12378 0.01303,-0.24413 0.03394,-0.36208h-2.3014c-1.13595,0 -2.05727,-0.92131 -2.05727,-2.05727v-4.00036h-11.36949c-1.8152,0 -3.52136,-0.80028 -4.682,-2.19579c-1.16064,-1.39551 -1.63621,-3.21894 -1.30534,-5.00362l0.28767,-1.55289l-6.23078,-3.31837c-0.67101,-0.35762 -1.09035,-1.05572 -1.09035,-1.81588v-12.04153h-1.39483c-1.13595,0 -2.05727,-0.92131 -2.05727,-2.05727c0,-1.13595 0.92131,-2.05727 2.05727,-2.05727h7.02831c1.13595,0 2.05727,0.92131 2.05727,2.05727c0,1.13595 -0.92131,2.05727 -2.05727,2.05727h-1.51861v3.15208v7.65406l4.03602,2.1495l0.50677,0.26984c1.1171,-1.53575 2.92406,-2.51158 4.92578,-2.51158h11.93181v-5.51622h-6.89425c-1.90743,0 -3.68388,-0.75913 -5.00259,-2.13716c-1.31871,-1.37803 -1.99829,-3.18671 -1.91394,-5.09208l1.33688,-30.22675c0.16424,-3.71063 3.20248,-6.61754 6.91688,-6.61754h21.62874c3.7144,0 6.7523,2.90692 6.91688,6.61754l1.33688,30.22709c0.08435,1.90537 -0.59524,3.71405 -1.91394,5.09208c-1.31871,1.37803 -3.09516,2.13716 -5.00259,2.13716h-6.89425v5.51622h11.23268c1.94069,0 3.72023,0.93949 4.84795,2.41832l4.59319,-2.44643v-10.80648h-1.51861c-1.13595,0 -2.05727,-0.92131 -2.05727,-2.05727c0,-1.13595 0.92131,-2.05727 2.05727,-2.05727h7.02797c1.13595,0 2.05624,0.92131 2.05624,2.05727zM565.78376,430.64373c0.55821,0 1.01252,-0.45431 1.01252,-1.01286c0,-0.55855 -0.45431,-1.01286 -1.01252,-1.01286c-0.55855,0 -1.01286,0.45466 -1.01286,1.01286c0,0.55855 0.45431,1.01286 1.01286,1.01286zM616.06235,430.64373c0.55821,0 1.01252,-0.45431 1.01252,-1.01286c0,-0.55855 -0.45431,-1.01286 -1.01252,-1.01286c-0.55855,0 -1.01286,0.45466 -1.01286,1.01286c0,0.55855 0.45431,1.01286 1.01286,1.01286zM591.95494,429.65007c0,-0.55855 -0.45431,-1.01286 -1.01286,-1.01286c-0.55821,0 -1.01252,0.45431 -1.01252,1.01286c0,0.55855 0.45431,1.01286 1.01252,1.01286c0.55855,0 1.01286,-0.45431 1.01286,-1.01286zM593.19033,403.80393h-4.5349v1.94309h4.5349zM608.06918,399.6894c0.60004,0 1.16098,-0.26813 1.53746,-0.73479c0.37648,-0.46666 0.5198,-1.07115 0.39328,-1.65747l-0.65627,-3.03516c-0.1951,-0.90245 -1.00703,-1.55735 -1.9304,-1.55735h-33.67919c-0.95149,0 -1.76822,0.67924 -1.94172,1.61496l-0.56266,3.03516c-0.14709,0.79239 0.20196,1.35677 0.42311,1.6225c0.2215,0.26607 0.7125,0.71216 1.51861,0.71216zM578.77095,378.959h24.30353c0.77388,0 1.49426,-0.30825 2.02949,-0.86714c0.53523,-0.55889 0.81091,-1.29265 0.77662,-2.06584l-1.33688,-30.22675c-0.06686,-1.50558 -1.29916,-2.68473 -2.80646,-2.68473h-21.62874c-1.50729,0 -2.73994,1.1795 -2.80646,2.68508l-1.33688,30.22675c-0.03394,0.77285 0.24139,1.50661 0.77662,2.06584c0.53523,0.55923 1.25562,0.86714 2.02915,0.8668zM589.78041,383.07387v5.51622h2.28562v-5.51622z" data-paper-data="{&quot;customAttributes&quot;:[{&quot;value&quot;:&quot;clickable&quot;,&quot;label&quot;:&quot;Clickable&quot;}]}" id="seat-001" fill="#000000" stroke-width="1"/>\n \n

<path d="M726.02603,378.21677c0,1.02819 -0.83391,1.8621 -1.8621,1.8621h-1.2625v10.89919c0,0.68805 -0.37956,1.32023 -0.98691,1.64361l-5.59934,2.98215l0.29763,1.37578c0.35411,1.63679 -0.04593,3.32292 -1.09771,4.62608c-1.05116,1.30316 -2.6147,2.05048 -4.28935,2.05048h-9.74344v3.62117c0,1.02819 -0.83391,1.8621 -1.8621,1.8621h-2.08276c0.01893,0.10645 0.03072,0.21569 0.03072,0.32773v4.60032c7.22371,0.14276 14.39838,1.11354 21.35457,2.89619c0.85564,0.21911 1.42233,0.99995 1.39968,1.85186v3.96969c1.63399,0.71908 2.77888,2.35121 2.77888,4.24807c0,2.55915 -2.08183,4.64098 -4.64067,4.64098c-2.55915,0 -4.64098,-2.08183 -4.64098,-4.64098c0,-1.89655 1.14488,-3.52868 2.77856,-4.24776v-2.5607c-6.21538,-1.48534 -12.60146,-2.3 -19.02974,-2.43221v5.00191c1.6433,0.71505 2.79625,2.35276 2.79625,4.25614c0,2.55915 -2.08183,4.64098 -4.64098,4.64098c-2.55884,0 -4.64067,-2.08183 -4.64067,-4.64098c0,-1.88972 1.13681,-3.51627 2.76119,-4.23938v-5.01867c-6.42859,0.13221 -12.81529,0.94688 -19.03005,2.43221v2.5607c1.63368,0.71908 2.77856,2.35121 2.77856,4.24776c0,2.55915 -2.08183,4.64098 -4.64067,4.64098c-2.55915,0 -4.64098,-2.08183 -4.64098,-4.64098c0,-1.89686 1.14488,-3.52899 2.77888,-4.24807v-4.01655c0,-0.85036 0.57632,-1.59396 1.39999,-1.805c6.95557,-1.78265 14.13055,-2.75374 21.35457,-2.8965v-4.60032c0,-0.11204 0.01179,-0.22097 0.03072,-0.32773h-2.08307c-1.02819,0 -1.8621,-0.83391 -1.8621,-1.8621v-3.62085h-10.2909c-1.64299,0 -3.1873,-0.72436 -4.23783,-1.98748c-1.05054,-1.26313 -1.48099,-2.91357 -1.1815,-4.52894l0.26038,-1.40558l-5.63968,-3.00357c-0.60736,-0.3237 -0.98691,-0.95557 -0.98691,-1.64361v-10.89919h-1.2625c-1.02819,0 -1.8621,-0.83391 -1.8621,-1.8621c0,-1.02819 0.83391,-1.8621 1.8621,-1.8621h6.36156c1.02819,0 1.8621,0.83391 1.8621,1.8621c0,1.02819 -0.83391,1.8621 -1.8621,1.8621h-1.37454v2.85305v6.92795l3.65313,1.94558l0.4587,0.24425c1.01112,-1.39006 2.64667,-2.27331 4.45849,-2.27331h10.79987v-4.99291h-6.24021c-1.72648,0 -3.3344,-0.68712 -4.52801,-1.93441c-1.19361,-1.2473 -1.80872,-2.88439 -1.73237,-4.60901l1.21006,-27.35923c0.14866,-3.35861 2.89867,-5.98976 6.26069,-5.98976h19.57689c3.36202,0 6.11173,2.63115 6.26069,5.98976l1.21006,27.35954c0.07635,1.72462 -0.53877,3.36171 -1.73237,4.60901c-1.19361,1.2473 -2.80153,1.93441 -4.52801,1.93441h-6.24021v4.99291h10.16707c1.75658,0 3.3673,0.85036 4.38804,2.1889l4.15745,-2.21435v-9.7813h-1.37454c-1.02819,0 -1.8621,-0.83391 -1.8621,-1.8621c0,-1.02819 0.83391,-1.8621 1.8621,-1.8621h6.36125c1.02819,0 1.86117,0.83391 1.86117,1.8621zM672.95243,427.94976c0.50525,0 0.91646,-0.41121 0.91646,-0.91677c0,-0.50556 -0.41121,-0.91677 -0.91646,-0.91677c-0.50556,0 -0.91677,0.41152 -0.91677,0.91677c0,0.50556 0.41121,0.91677 0.91677,0.91677zM718.46124,427.94976c0.50525,0 0.91646,-0.41121 0.91646,-0.91677c0,-0.50556 -0.41121,-0.91677 -0.91646,-0.91677c-0.50556,0 -0.91677,0.41152 -0.91677,0.91677c0,0.50556 0.41121,0.91677 0.91677,0.91677zM696.64084,427.05037c0,-0.50556 -0.41121,-0.91677 -0.91677,-0.91677c-0.50525,0 -0.91646,0.41121 -0.91646,0.91677c0,0.50556 0.41121,0.91677 0.91646,0.91677c0.50556,0 0.91677,-0.41121 0.91677,-0.91677zM697.75903,403.65617h-4.10469v1.75875h4.10469zM711.22636,399.93197c0.54311,0 1.05085,-0.24269 1.39161,-0.66508c0.34076,-0.42239 0.47049,-0.96953 0.35597,-1.50023l-0.59401,-2.74722c-0.17659,-0.81684 -0.9115,-1.40961 -1.74727,-1.40961h-30.48414c-0.86122,0 -1.60048,0.6148 -1.75751,1.46175l-0.50928,2.74722c-0.13314,0.71722 0.1828,1.22806 0.38297,1.46858c0.20049,0.24083 0.64491,0.6446 1.37454,0.6446zM684.70756,381.1682h21.99793c0.70046,0 1.35251,-0.279 1.83696,-0.78488c0.48446,-0.50587 0.73398,-1.17002 0.70294,-1.86986l-1.21006,-27.35923c-0.06052,-1.36275 -1.17592,-2.43004 -2.54022,-2.43004h-19.57689c-1.3643,0 -2.48001,1.0676 -2.54022,2.43035l-1.21006,27.35923c-0.03072,0.69953 0.21849,1.36368 0.70294,1.86986c0.48446,0.50618 1.1365,0.78488 1.83665,0.78457zM694.6726,384.89272v4.99291h2.06879v-4.99291z" data-paper-data="{&quot;customAttributes&quot;:[{&quot;value&quot;:&quot;monitortype&quot;,&quot;label&quot;:&quot;Monitor Type&quot;}]}" id="seat-002" fill="#000000" stroke-width="1"/>\n \n

<path d="M829.42,376.1454c0,1.11884 -0.90743,2.02628 -2.02628,2.02628h-1.37382v11.86014c0,0.74871 -0.41302,1.43663 -1.07393,1.78853l-6.09301,3.24508l0.32387,1.49708c0.38533,1.7811 -0.04998,3.61589 -1.19449,5.03395c-1.14383,1.41806 -2.84523,2.23127 -4.66753,2.23127h-10.60249v3.94043c0,1.11884 -0.90743,2.02628 -2.02628,2.02628h-2.26639c0.0206,0.11584 0.03343,0.23471 0.03343,0.35662v5.00592c7.8606,0.15535 15.66785,1.21171 23.23734,3.15154c0.93107,0.23843 1.54774,1.08811 1.52308,2.01513v4.31968c1.77806,0.78248 3.02388,2.55851 3.02388,4.62261c0,2.78478 -2.26538,5.05016 -5.04982,5.05016c-2.78478,0 -5.05016,-2.26538 -5.05016,-5.05016c0,-2.06376 1.24582,-3.83979 3.02354,-4.62227v-2.78647c-6.76337,-1.61629 -13.71249,-2.50279 -20.70753,-2.64666v5.44292c1.78819,0.77809 3.04279,2.5602 3.04279,4.63139c0,2.78478 -2.26538,5.05016 -5.05016,5.05016c-2.78444,0 -5.04982,-2.26538 -5.04982,-5.05016c0,-2.05633 1.23704,-3.82629 3.00463,-4.61316v-5.46115c-6.99538,0.14387 -13.94517,1.03036 -20.70787,2.64666v2.78647c1.77772,0.78248 3.02354,2.55851 3.02354,4.62227c0,2.78478 -2.26538,5.05016 -5.04982,5.05016c-2.78478,0 -5.05016,-2.26538 -5.05016,-5.05016c0,-2.0641 1.24582,-3.84013 3.02388,-4.62261v-4.37068c0,-0.92533 0.62713,-1.73449 1.52342,-1.96414c7.56882,-1.93982 15.3764,-2.99653 23.23734,-3.15187v-5.00592c0,-0.12191 0.01283,-0.24045 0.03343,-0.35662h-2.26673c-1.11884,0 -2.02628,-0.90743 -2.02628,-2.02628v-3.9401h-11.19822c-1.78785,0 -3.46831,-0.78822 -4.61147,-2.16271c-1.14316,-1.37449 -1.61157,-3.17045 -1.28567,-4.92824l0.28334,-1.5295l-6.13692,-3.26838c-0.6609,-0.35223 -1.07393,-1.03982 -1.07393,-1.78853v-11.86014h-1.37382c-1.11884,0 -2.02628,-0.90743 -2.02628,-2.02628c0,-1.11884 0.90743,-2.02628 2.02628,-2.02628h6.92244c1.11884,0 2.02628,0.90743 2.02628,2.02628c0,1.11884 -0.90743,2.02628 -2.02628,2.02628h-1.49573v3.10459v7.53876l3.97522,2.11712l0.49914,0.26578c1.10027,-1.51262 2.88001,-2.47375 4.85158,-2.47375h11.75207v-5.43312h-6.79039c-1.8787,0 -3.62839,-0.7477 -4.92723,-2.10496c-1.29884,-1.35727 -1.96819,-3.1387 -1.88511,-5.01537l1.31674,-29.77141c0.16176,-3.65473 3.15424,-6.51786 6.81268,-6.51786h21.30292c3.65844,0 6.65058,2.86313 6.81268,6.51786l1.31674,29.77175c0.08308,1.87667 -0.58627,3.6581 -1.88511,5.01537c-1.29884,1.35727 -3.04853,2.10496 -4.92723,2.10496h-6.79039v5.43312h11.06347c1.91145,0 3.66418,0.92533 4.77492,2.38189l4.524,-2.40958v-10.64369h-1.49573c-1.11884,0 -2.02628,-0.90743 -2.02628,-2.02628c0,-1.11884 0.90743,-2.02628 2.02628,-2.02628h6.9221c1.11884,0 2.02526,0.90743 2.02526,2.02628zM771.66706,430.2632c0.5498,0 0.99727,-0.44747 0.99727,-0.9976c0,-0.55013 -0.44747,-0.9976 -0.99727,-0.9976c-0.55013,0 -0.9976,0.44781 -0.9976,0.9976c0,0.55013 0.44747,0.9976 0.9976,0.9976zM821.18825,430.2632c0.5498,0 0.99727,-0.44747 0.99727,-0.9976c0,-0.55013 -0.44747,-0.9976 -0.99727,-0.9976c-0.55013,0 -0.9976,0.44781 -0.9976,0.9976c0,0.55013 0.44747,0.9976 0.9976,0.9976zM797.444,429.28451c0,-0.55013 -0.44747,-0.9976 -0.9976,-0.9976c-0.5498,0 -0.99727,0.44747 -0.99727,0.9976c0,0.55013 0.44747,0.9976 0.99727,0.9976c0.55013,0 0.9976,-0.44747 0.9976,-0.9976zM798.66078,403.82772h-4.46659v1.91382h4.46659zM813.31549,399.77516c0.591,0 1.1435,-0.26409 1.5143,-0.72372c0.37081,-0.45963 0.51197,-1.05501 0.38736,-1.6325l-0.64638,-2.98943c-0.19216,-0.88886 -0.99186,-1.53389 -1.90132,-1.53389h-33.17184c-0.93715,0 -1.74158,0.66901 -1.91247,1.59063l-0.55419,2.98943c-0.14488,0.78045 0.19891,1.33633 0.41674,1.59806c0.21816,0.26207 0.70177,0.70143 1.49573,0.70143zM784.45861,379.35705h23.93742c0.76222,0 1.47175,-0.3036 1.99892,-0.85408c0.52717,-0.55047 0.79869,-1.27318 0.76492,-2.03472l-1.31674,-29.77141c-0.06585,-1.4829 -1.27959,-2.64429 -2.76418,-2.64429h-21.30292c-1.48459,0 -2.69866,1.16173 -2.76418,2.64463l-1.31674,29.77141c-0.03343,0.7612 0.23775,1.48391 0.76492,2.03472c0.52717,0.55081 1.2367,0.85408 1.99858,0.85374zM795.30223,383.40994v5.43312h2.25119v-5.43312z" data-paper-data="{&quot;customAttributes&quot;:[{&quot;value&quot;:&quot;clickable&quot;,&quot;label&quot;:&quot;Clickable&quot;},{&quot;value&quot;:&quot;monitortype&quot;,&quot;label&quot;:&quot;Monitor Type&quot;},{&quot;value&quot;:&quot;dockingstation&quot;,&quot;label&quot;:&quot;Docking Station&quot;},{&quot;value&quot;:&quot;adjustableheightdesk&quot;,&quot;label&quot;:&quot;Adjustable Height Desk&quot;},{&quot;value&quot;:&quot;privacy&quot;,&quot;label&quot;:&quot;Privacy&quot;}]}" id="seat-003" fill="#000000" stroke-width="1"/><g data-paper-data="{&quot;customAttributes&quot;:[{&quot;value&quot;:&quot;clickable&quot;,&quot;label&quot;:&quot;Clickable&quot;},{&quot;value&quot;:&quot;monitortype&quot;,&quot;label&quot;:&quot;Monitor Type&quot;}]}" id="group1" fill="#000000" stroke-width="1">\n \n

<path d="M1107.42,365.04228c0,1.33233 -1.08058,2.41291 -2.41291,2.41291h-1.63595v14.12316c0,0.89157 -0.49183,1.71075 -1.27884,2.12979l-7.25562,3.86427l0.38566,1.78274c0.45885,2.12095 -0.05952,4.30584 -1.42241,5.99447c-1.36209,1.68863 -3.38813,2.65702 -5.55814,2.65702h-12.62555v4.6923c0,1.33233 -1.08058,2.41291 -2.41291,2.41291h-2.69884c0.02453,0.13794 0.03981,0.2795 0.03981,0.42467v5.96109c9.36048,0.18499 18.65742,1.44292 27.67124,3.75288c1.10873,0.28392 1.84306,1.29573 1.8137,2.39964v5.14392c2.11733,0.93179 3.60086,3.0467 3.60086,5.50465c0,3.31614 -2.69763,6.01377 -6.01337,6.01377c-3.31614,0 -6.01377,-2.69763 -6.01377,-6.01377c0,-2.45755 1.48354,-4.57246 3.60046,-5.50425v-3.31815c-8.05389,-1.9247 -16.32896,-2.98035 -24.65873,-3.15166v6.48148c2.12939,0.92656 3.62339,3.04871 3.62339,5.51511c0,3.31614 -2.69763,6.01377 -6.01377,6.01377c-3.31574,0 -6.01337,-2.69763 -6.01337,-6.01377c0,-2.4487 1.47308,-4.55638 3.57794,-5.49339v-6.50319c-8.33017,0.17132 -16.60604,1.22696 -24.65913,3.15166v3.31815c2.11693,0.93179 3.60046,3.0467 3.60046,5.50425c0,3.31614 -2.69763,6.01377 -6.01337,6.01377c-3.31614,0 -6.01377,-2.69763 -6.01377,-6.01377c0,-2.45795 1.48354,-4.57287 3.60086,-5.50465v-5.20465c0,-1.1019 0.7468,-2.06545 1.81411,-2.33891c9.01302,-2.30996 18.31036,-3.56829 27.67124,-3.75328v-5.96109c0,-0.14518 0.01528,-0.28633 0.03981,-0.42467h-2.69924c-1.33233,0 -2.41291,-1.08058 -2.41291,-2.41291v-4.6919h-13.33494c-2.12899,0 -4.1301,-0.93862 -5.49138,-2.57538c-1.36128,-1.63676 -1.91907,-3.7754 -1.53099,-5.8686l0.33741,-1.82134l-7.3079,-3.89202c-0.78701,-0.41944 -1.27884,-1.23822 -1.27884,-2.12979v-14.12316h-1.63595c-1.33233,0 -2.41291,-1.08058 -2.41291,-2.41291c0,-1.33233 1.08058,-2.41291 2.41291,-2.41291h8.2433c1.33233,0 2.41291,1.08058 2.41291,2.41291c0,1.33233 -1.08058,2.41291 -2.41291,2.41291h-1.78113v3.69698v8.97723l4.73373,2.52109l0.59438,0.31649c1.31021,-1.80124 3.42955,-2.94576 5.77731,-2.94576h13.99447v-6.46981h-8.08606c-2.23717,0 -4.32072,-0.89036 -5.86739,-2.50661c-1.54667,-1.61625 -2.34374,-3.7376 -2.24481,-5.97235l1.56799,-35.45207c0.19263,-4.35208 3.7561,-7.76152 8.1126,-7.76152h25.36772c4.35651,0 7.91957,3.40944 8.1126,7.76152l1.56799,35.45247c0.09893,2.23476 -0.69814,4.35611 -2.24481,5.97235c-1.54667,1.61625 -3.63022,2.50661 -5.86739,2.50661h-8.08606v6.46981h13.17448c2.27618,0 4.36334,1.1019 5.68602,2.83637l5.38722,-2.86935v-12.67461h-1.78113c-1.33233,0 -2.41291,-1.08058 -2.41291,-2.41291c0,-1.33233 1.08058,-2.41291 2.41291,-2.41291h8.2429c1.33233,0 2.4117,1.08058 2.4117,2.41291zM1038.64726,429.48626c0.6547,0 1.18755,-0.53285 1.18755,-1.18796c0,-0.6551 -0.53285,-1.18796 -1.18755,-1.18796c-0.6551,0 -1.18796,0.53325 -1.18796,1.18796c0,0.6551 0.53285,1.18796 1.18796,1.18796zM1097.61756,429.48626c0.6547,0 1.18755,-0.53285 1.18755,-1.18796c0,-0.6551 -0.53285,-1.18796 -1.18755,-1.18796c-0.6551,0 -1.18796,0.53325 -1.18796,1.18796c0,0.6551 0.53285,1.18796 1.18796,1.18796zM1069.34268,428.32082c0,-0.6551 -0.53285,-1.18796 -1.18796,-1.18796c-0.6547,0 -1.18755,0.53285 -1.18755,1.18796c0,0.6551 0.53285,1.18796 1.18755,1.18796c0.6551,0 1.18796,-0.53285 1.18796,-1.18796zM1070.79164,398.00664h-5.31886v2.27899h5.31886zM1088.2426,393.18082c0.70377,0 1.36169,-0.31448 1.80325,-0.86181c0.44156,-0.54733 0.60966,-1.25632 0.46127,-1.944l-0.76972,-3.55985c-0.22882,-1.05846 -1.18112,-1.82657 -2.26411,-1.82657h-39.50133c-1.11597,0 -2.0739,0.79666 -2.27738,1.89413l-0.65993,3.55985c-0.17252,0.92937 0.23687,1.59131 0.49625,1.90298c0.25979,0.31207 0.83567,0.83527 1.78113,0.83527zM1053.87955,368.86674h28.5049c0.90766,0 1.75258,-0.36153 2.38033,-1.01704c0.62776,-0.65551 0.95109,-1.51611 0.91087,-2.42296l-1.56799,-35.45207c-0.07842,-1.76585 -1.52375,-3.14885 -3.29161,-3.14885h-25.36772c-1.76786,0 -3.21359,1.3834 -3.29161,3.14925l-1.56799,35.45207c-0.03981,0.90645 0.28311,1.76705 0.91087,2.42296c0.62776,0.65591 1.47268,1.01704 2.37993,1.01664zM1066.79224,373.69296v6.46981h2.68074v-6.46981z" data-paper-data="{&quot;customAttributes&quot;:[{&quot;value&quot;:&quot;clickable&quot;,&quot;label&quot;:&quot;Clickable&quot;}]}" id="seat-004-inGroup"/>\n \n

<path d="M1197.42,360.50964c0,1.28489 -1.0421,2.32699 -2.32699,2.32699h-1.5777v13.62027c0,0.85982 -0.47432,1.64984 -1.23331,2.05396l-6.99726,3.72668l0.37193,1.71926c0.44252,2.04542 -0.0574,4.15252 -1.37176,5.78102c-1.31359,1.62851 -3.26748,2.5624 -5.36022,2.5624h-12.17598v4.52522c0,1.28489 -1.0421,2.32699 -2.32699,2.32699h-2.60274c0.02366,0.13303 0.0384,0.26954 0.0384,0.40955v5.74883c9.02717,0.1784 17.99307,1.39154 26.68593,3.61925c1.06925,0.27381 1.77743,1.24959 1.74912,2.31419v4.96076c2.04193,0.89861 3.47265,2.93821 3.47265,5.30864c0,3.19806 -2.60158,5.79964 -5.79925,5.79964c-3.19806,0 -5.79964,-2.60158 -5.79964,-5.79964c0,-2.37004 1.43071,-4.40965 3.47226,-5.30825v-3.2c-7.76711,-1.85616 -15.74752,-2.87422 -23.78068,-3.03944v6.25069c2.05357,0.89356 3.49436,2.94015 3.49436,5.31873c0,3.19806 -2.60158,5.79964 -5.79964,5.79964c-3.19767,0 -5.79925,-2.60158 -5.79925,-5.79964c0,-2.36151 1.42063,-4.39413 3.45054,-5.29778v-6.27163c-8.03355,0.16522 -16.01474,1.18327 -23.78107,3.03944v3.2c2.04155,0.89861 3.47226,2.93821 3.47226,5.30825c0,3.19806 -2.60158,5.79964 -5.79925,5.79964c-3.19806,0 -5.79964,-2.60158 -5.79964,-5.79964c0,-2.37043 1.43071,-4.41004 3.47265,-5.30864v-5.01932c0,-1.06266 0.7202,-1.9919 1.74951,-2.25563c8.69209,-2.22771 17.65837,-3.44123 26.68593,-3.61963v-5.74883c0,-0.14001 0.01474,-0.27614 0.0384,-0.40955h-2.60313c-1.28489,0 -2.32699,-1.0421 -2.32699,-2.32699v-4.52483h-12.86012c-2.05318,0 -3.98303,-0.9052 -5.29584,-2.48367c-1.31281,-1.57848 -1.85073,-3.64097 -1.47648,-5.65963l0.32539,-1.75649l-7.04768,-3.75344c-0.75899,-0.40451 -1.23331,-1.19413 -1.23331,-2.05396v-13.62027h-1.5777c-1.28489,0 -2.32699,-1.0421 -2.32699,-2.32699c0,-1.28489 1.0421,-2.32699 2.32699,-2.32699h7.94978c1.28489,0 2.32699,1.0421 2.32699,2.32699c0,1.28489 -1.0421,2.32699 -2.32699,2.32699h-1.71771v3.56534v8.65757l4.56517,2.43132l0.57322,0.30522c1.26356,-1.7371 3.30743,-2.84087 5.57159,-2.84087h13.49616v-6.23944h-7.79813c-2.15751,0 -4.16687,-0.85866 -5.65847,-2.41736c-1.4916,-1.5587 -2.26028,-3.60451 -2.16488,-5.75969l1.51216,-34.1897c0.18577,-4.19712 3.62235,-7.48515 7.82373,-7.48515h24.46443c4.20138,0 7.63757,3.28804 7.82373,7.48515l1.51216,34.19009c0.09541,2.15518 -0.67328,4.20099 -2.16488,5.75969c-1.4916,1.5587 -3.50096,2.41736 -5.65847,2.41736h-7.79813v6.23944h12.70537c2.19513,0 4.20798,1.06266 5.48355,2.73538l5.19539,-2.76718v-12.2233h-1.71771c-1.28489,0 -2.32699,-1.0421 -2.32699,-2.32699c0,-1.28489 1.0421,-2.32699 2.32699,-2.32699h7.94939c1.28489,0 2.32583,1.0421 2.32583,2.32699zM1131.09611,422.65891c0.63139,0 1.14527,-0.51388 1.14527,-1.14566c0,-0.63178 -0.51388,-1.14566 -1.14527,-1.14566c-0.63178,0 -1.14566,0.51426 -1.14566,1.14566c0,0.63178 0.51388,1.14566 1.14566,1.14566zM1187.9666,422.65891c0.63139,0 1.14527,-0.51388 1.14527,-1.14566c0,-0.63178 -0.51388,-1.14566 -1.14527,-1.14566c-0.63178,0 -1.14566,0.51426 -1.14566,1.14566c0,0.63178 0.51388,1.14566 1.14566,1.14566zM1160.69853,421.53498c0,-0.63178 -0.51388,-1.14566 -1.14566,-1.14566c-0.63139,0 -1.14527,0.51388 -1.14527,1.14566c0,0.63178 0.51388,1.14566 1.14527,1.14566c0.63178,0 1.14566,-0.51388 1.14566,-1.14566zM1162.09589,392.30021h-5.12946v2.19784h5.12946zM1178.92546,387.64623c0.67871,0 1.3132,-0.30328 1.73904,-0.83112c0.42584,-0.52784 0.58795,-1.21159 0.44484,-1.87478l-0.74231,-3.43309c-0.22068,-1.02077 -1.13906,-1.76153 -2.18349,-1.76153h-38.09478c-1.07623,0 -2.00005,0.76829 -2.19629,1.82669l-0.63643,3.43309c-0.16638,0.89628 0.22843,1.53465 0.47858,1.83522c0.25054,0.30096 0.80591,0.80553 1.71771,0.80553zM1145.78601,364.19792h27.48991c0.87534,0 1.69017,-0.34866 2.29558,-0.98083c0.60541,-0.63217 0.91722,-1.46213 0.87844,-2.33669l-1.51216,-34.1897c-0.07563,-1.70297 -1.46949,-3.03672 -3.1744,-3.03672h-24.46443c-1.70491,0 -3.09916,1.33414 -3.1744,3.03711l-1.51216,34.1897c-0.0384,0.87417 0.27303,1.70413 0.87844,2.33669c0.60541,0.63255 1.42024,0.98083 2.29519,0.98044zM1158.2389,368.85229v6.23944h2.58529v-6.23944z" data-paper-data="{&quot;customAttributes&quot;:[{&quot;value&quot;:&quot;monitortype&quot;,&quot;label&quot;:&quot;Monitor Type&quot;},{&quot;value&quot;:&quot;dockingstation&quot;,&quot;label&quot;:&quot;Docking Station&quot;},{&quot;value&quot;:&quot;adjustableheightdesk&quot;,&quot;label&quot;:&quot;Adjustable Height Desk&quot;}]}" id="seat-005-inGroup"/></g>\n \n

<path d="M1287.42,364.12498c0,1.14916 -0.93203,2.08119 -2.08119,2.08119h-1.41105v12.18156c0,0.769 -0.42422,1.47556 -1.10303,1.837l-6.25814,3.33303l0.33264,1.53765c0.39577,1.82937 -0.05134,3.71389 -1.22686,5.17037c-1.17483,1.45649 -2.92234,2.29174 -4.79402,2.29174h-10.88983v4.04722c0,1.14916 -0.93203,2.08119 -2.08119,2.08119h-2.32781c0.02116,0.11897 0.03434,0.24107 0.03434,0.36629v5.14158c8.07363,0.15956 16.09246,1.24455 23.8671,3.23695c0.95631,0.24489 1.58968,1.1176 1.56436,2.06974v4.43675c1.82625,0.80369 3.10583,2.62785 3.10583,4.74789c0,2.86025 -2.32677,5.18702 -5.18668,5.18702c-2.86025,0 -5.18702,-2.32677 -5.18702,-5.18702c0,-2.11969 1.27959,-3.94386 3.10548,-4.74754v-2.86198c-6.94667,-1.6601 -14.08411,-2.57062 -21.26873,-2.71838v5.59043c1.83665,0.79918 3.12526,2.62959 3.12526,4.75691c0,2.86025 -2.32677,5.18702 -5.18702,5.18702c-2.8599,0 -5.18668,-2.32677 -5.18668,-5.18702c0,-2.11206 1.27057,-3.92998 3.08606,-4.73818v-5.60916c-7.18497,0.14776 -14.3231,1.05829 -21.26908,2.71838v2.86198c1.8259,0.80369 3.10548,2.62785 3.10548,4.74754c0,2.86025 -2.32677,5.18702 -5.18668,5.18702c-2.86025,0 -5.18702,-2.32677 -5.18702,-5.18702c0,-2.12004 1.27959,-3.9442 3.10583,-4.74789v-4.48913c0,-0.95041 0.64413,-1.7815 1.56471,-2.01737c7.77394,-1.99239 15.79312,-3.07773 23.8671,-3.23729v-5.14158c0,-0.12522 0.01318,-0.24697 0.03434,-0.36629h-2.32816c-1.14916,0 -2.08119,-0.93203 -2.08119,-2.08119v-4.04688h-11.5017c-1.8363,0 -3.56231,-0.80958 -4.73644,-2.22132c-1.17414,-1.41174 -1.65524,-3.25637 -1.32052,-5.0618l0.29102,-1.57095l-6.30323,-3.35696c-0.67882,-0.36178 -1.10303,-1.068 -1.10303,-1.837v-12.18156h-1.41105c-1.14916,0 -2.08119,-0.93203 -2.08119,-2.08119c0,-1.14916 0.93203,-2.08119 2.08119,-2.08119h7.11004c1.14916,0 2.08119,0.93203 2.08119,2.08119c0,1.14916 -0.93203,2.08119 -2.08119,2.08119h-1.53627v3.18873v7.74307l4.08295,2.1745l0.51267,0.27298c1.13009,-1.55361 2.95807,-2.54079 4.98307,-2.54079h12.07056v-5.58037h-6.97442c-1.92961,0 -3.72672,-0.76796 -5.06076,-2.16201c-1.33404,-1.39405 -2.02153,-3.22377 -1.9362,-5.1513l1.35243,-30.57825c0.16615,-3.75378 3.23972,-6.6945 6.99731,-6.6945h21.88026c3.75759,0 6.83082,2.94072 6.99731,6.6945l1.35243,30.5786c0.08533,1.92753 -0.60216,3.75724 -1.9362,5.1513c-1.33404,1.39405 -3.13115,2.16201 -5.06076,2.16201h-6.97442v5.58037h11.3633c1.96326,0 3.76349,0.95041 4.90433,2.44644l4.64661,-2.47488v-10.93215h-1.53627c-1.14916,0 -2.08119,-0.93203 -2.08119,-2.08119c0,-1.14916 0.93203,-2.08119 2.08119,-2.08119h7.1097c1.14916,0 2.08015,0.93203 2.08015,2.08119zM1228.10189,419.70944c0.5647,0 1.02429,-0.4596 1.02429,-1.02464c0,-0.56504 -0.4596,-1.02464 -1.02429,-1.02464c-0.56504,0 -1.02464,0.45994 -1.02464,1.02464c0,0.56504 0.4596,1.02464 1.02464,1.02464zM1278.96516,419.70944c0.5647,0 1.02429,-0.4596 1.02429,-1.02464c0,-0.56504 -0.4596,-1.02464 -1.02429,-1.02464c-0.56504,0 -1.02464,0.45994 -1.02464,1.02464c0,0.56504 0.4596,1.02464 1.02464,1.02464zM1254.57741,418.70422c0,-0.56504 -0.4596,-1.02464 -1.02464,-1.02464c-0.5647,0 -1.02429,0.4596 -1.02429,1.02464c0,0.56504 0.4596,1.02464 1.02429,1.02464c0.56504,0 1.02464,-0.4596 1.02464,-1.02464zM1255.82717,392.55752h-4.58764v1.96569h4.58764zM1270.87904,388.39514c0.60701,0 1.17449,-0.27125 1.55534,-0.74333c0.38086,-0.47208 0.52585,-1.08361 0.39785,-1.67675l-0.6639,-3.07045c-0.19737,-0.91295 -1.01874,-1.57546 -1.95285,-1.57546h-34.07083c-0.96255,0 -1.78878,0.68714 -1.9643,1.63374l-0.56921,3.07045c-0.14881,0.80161 0.2043,1.37255 0.42803,1.64137c0.22407,0.26917 0.72079,0.72044 1.53627,0.72044zM1241.2401,367.42367h24.58615c0.78287,0 1.51164,-0.31183 2.0531,-0.87722c0.54146,-0.56539 0.82034,-1.30768 0.78565,-2.08986l-1.35243,-30.57825c-0.06764,-1.52309 -1.31427,-2.71595 -2.83909,-2.71595h-21.88026c-1.52482,0 -2.7718,1.19322 -2.83909,2.7163l-1.35243,30.57825c-0.03434,0.78183 0.24419,1.52413 0.78565,2.08986c0.54146,0.56574 1.27022,0.87722 2.05275,0.87688zM1252.3776,371.5864v5.58037h2.3122v-5.58037z" data-paper-data="{&quot;customAttributes&quot;:[{&quot;value&quot;:&quot;privacy&quot;,&quot;label&quot;:&quot;Privacy&quot;},{&quot;value&quot;:&quot;adjustableheightdesk&quot;,&quot;label&quot;:&quot;Adjustable Height Desk&quot;}]}" id="seat-outside-group" fill="#000000" stroke-width="1"/></g></g></svg>